<?xml version="1.0" encoding="UTF-8"?>
<!DOCTYPE svg PUBLIC "-//W3C//DTD SVG 1.1//EN" "http://www.w3.org/Graphics/SVG/1.1/DTD/svg11.dtd">
<!-- Creator: CorelDRAW X7 -->
<svg xmlns="http://www.w3.org/2000/svg" xml:space="preserve" width="176.56mm" height="176.551mm" version="1.1" style="shape-rendering:geometricPrecision; text-rendering:geometricPrecision; image-rendering:optimizeQuality; fill-rule:evenodd; clip-rule:evenodd"
viewBox="0 0 24480 24479"
 xmlns:xlink="http://www.w3.org/1999/xlink">
 <defs>
  <style type="text/css">
   <![CDATA[
    .fil1 {fill:#566892}
    .fil0 {fill:#181865}
    .fil2 {fill:#87A4B5}
   ]]>
  </style>
 </defs>
 <g id="Layer_x0020_1">
  <metadata id="CorelCorpID_0Corel-Layer"/>
  <path class="fil0" d="M11481 24479l1318 0c145,-52 1010,-104 1268,-141 2582,-375 4735,-1507 6594,-3238 921,-819 1856,-2049 2542,-3428 516,-1037 898,-2187 1097,-3356 57,-340 71,-1041 180,-1295l0 -1369c-181,-489 108,-3187 -2359,-6629 -2738,-3822 -7798,-5860 -12694,-4697 -2393,569 -4091,1618 -5790,3212l-553 571c-1314,1650 -2153,2889 -2718,5161 -947,3810 -9,7610 2267,10545 1267,1634 3153,3059 5171,3829 549,209 1115,394 1724,527 354,78 1831,255 1953,308z"/>
  <path class="fil1" d="M11481 24479l1318 0c145,-52 1010,-104 1268,-141 2582,-375 4735,-1507 6594,-3238 52,-47 104,-94 157,-143 43,-71 85,-142 127,-215 -284,-3167 -2220,-5853 -4929,-7167 -81,144 -167,281 -256,411 -173,250 -399,472 -577,671 -195,216 -389,362 -637,548 -435,327 -1039,570 -1639,665 -1920,305 -3556,-724 -4451,-2292 -2703,1315 -4634,3994 -4921,7155 51,87 102,174 155,260 1160,1127 2600,2074 4114,2651 549,209 1115,394 1724,527 354,78 1831,255 1953,308z"/>
  <path class="fil1" d="M11512 3862c-1420,214 -2348,949 -2981,1724 -712,871 -1181,2183 -978,3669 325,2372 2562,4359 5386,3973 628,-86 1260,-305 1716,-600 259,-167 463,-299 666,-494 187,-178 424,-379 604,-604 711,-890 1216,-2174 998,-3711 -334,-2360 -2583,-4382 -5411,-3957z"/>
  <line class="fil2" x1="20661" y1="21100" x2="20661" y2= "21100" />
 </g>
</svg>
