<?xml version="1.0" encoding="UTF-8"?>
<!DOCTYPE svg PUBLIC "-//W3C//DTD SVG 1.1//EN" "http://www.w3.org/Graphics/SVG/1.1/DTD/svg11.dtd">
<!-- Creator: CorelDRAW X7 -->
<svg xmlns="http://www.w3.org/2000/svg" xml:space="preserve" width="130.48mm" height="73.1059mm" version="1.1" style="shape-rendering:geometricPrecision; text-rendering:geometricPrecision; image-rendering:optimizeQuality; fill-rule:evenodd; clip-rule:evenodd"
viewBox="0 0 5700 3194"
 xmlns:xlink="http://www.w3.org/1999/xlink">
 <defs>
  <style type="text/css">
   <![CDATA[
    .fil2 {fill:url(#id0)}
    .fil1 {fill:url(#id1)}
    .fil0 {fill:url(#id2)}
    .fil3 {fill:url(#id3)}
   ]]>
  </style>
  <linearGradient id="id0" gradientUnits="userSpaceOnUse" x1="5574.51" y1="2408.72" x2="4845.47" y2="2991.45">
   <stop offset="0" style="stop-opacity:1; stop-color:#FEFEFE"/>
   <stop offset="1" style="stop-opacity:1; stop-color:#20185C"/>
  </linearGradient>
  <linearGradient id="id1" gradientUnits="objectBoundingBox" xlink:href="#id0" x1="88.8542%" y1="7.81617%" x2="11.1458%" y2="92.1838%">
  </linearGradient>
  <linearGradient id="id2" gradientUnits="userSpaceOnUse" x1="4541.89" y1="295.338" x2="1157.68" y2="2898.17">
   <stop offset="0" style="stop-opacity:1; stop-color:#0C0C3B"/>
   <stop offset="1" style="stop-opacity:1; stop-color:#20185C"/>
  </linearGradient>
  <linearGradient id="id3" gradientUnits="userSpaceOnUse" xlink:href="#id0" x1="5468.13" y1="2557.96" x2="5110.55" y2="2988.56">
  </linearGradient>
 </defs>
 <g id="Layer_x0020_1">
  <metadata id="CorelCorpID_0Corel-Layer"/>
  <rect class="fil0" width="5700" height="3194"/>
  <g id="_281153920">
   <path class="fil1" d="M5700 3057l0 12c-233,-1 -467,0 -700,0 -109,0 -86,13 -135,-38 -17,-18 -25,-11 -75,-11 -29,0 -24,-3 -56,-35l-130 -130c-21,-20 -2,-79 -11,-82l-12 -12c-7,-10 -5,-11 -4,-23 39,-38 68,17 30,33 0,17 -2,42 0,58 1,20 66,76 82,91 87,89 72,92 148,87 -6,-14 -61,-65 -72,-76 -92,-91 -84,-67 -84,-136 1,-40 4,-34 -18,-56l-295 -294c-7,-7 -12,-13 -18,-19 -16,-15 -9,-4 -29,-8 -24,-5 -19,-38 -4,-45 36,-7 31,12 35,38 55,49 101,98 145,144l109 109c10,10 25,27 37,35 0,-102 15,-63 -100,-179l-105 -105c-7,-3 -52,2 -42,-33 13,-25 45,-22 47,4 1,19 -6,13 7,26l107 107c29,28 56,56 85,85 38,36 -18,92 39,133 1,-90 -1,-181 0,-272 1,-39 -7,-33 -53,-80 -16,-16 -59,-54 -68,-69 -15,0 -27,2 -35,-9 -7,-10 -5,-24 2,-31 8,-8 22,-9 32,-2 13,10 5,20 10,33 2,5 80,83 88,88l56 -54c16,-15 8,-6 11,-28 7,-45 69,-10 40,20 -9,9 -21,5 -34,6l-63 66c10,14 25,18 26,37 2,21 -1,45 1,67 6,-4 36,-33 41,-39 13,-18 -4,-50 11,-69 58,-67 44,5 44,-195 0,-78 3,-48 -13,-67 -17,-21 7,-47 29,-36 8,3 15,13 13,25 -2,14 -10,13 -17,24l0 194c0,28 -8,28 -22,42 -10,10 -26,19 -28,37 -6,51 20,24 -42,87 -16,17 -19,23 -16,50l87 -86c12,-11 14,-9 16,-27 1,-15 3,-24 17,-27 33,-7 39,37 15,45 -32,11 0,-19 -53,34l-65 65c-9,8 -16,11 -18,26 -2,24 0,66 1,92 14,-8 105,-101 102,-103l0 -6c0,-1 0,-2 1,-3 3,-49 56,-29 45,5 -7,23 -25,9 -38,16l-90 89c-29,28 -21,26 -21,103 0,77 -8,49 92,149l120 123 795 0z"/>
   <path class="fil2" d="M5700 3007l0 13c-240,0 -480,0 -720,0 -97,0 -63,14 -130,-51 -31,-31 -59,-59 -90,-90 -12,-12 -37,-30 -38,-50 -5,-97 -6,-71 96,-173 64,-64 119,-118 180,-180 15,-15 29,-29 45,-45 13,-13 12,-6 13,-26 0,-15 5,-23 18,-26 35,-6 37,37 15,45 -32,11 -2,-22 -57,34l-270 270c-24,24 -28,15 -27,61 0,45 -6,47 21,70 15,-6 121,-116 123,-121 3,-12 -1,-25 8,-33 22,-17 51,9 36,33 -14,24 -18,-9 -50,24 -24,25 -93,88 -104,107 7,14 94,97 109,112 34,34 33,27 122,26 25,0 32,-15 46,-29 26,-26 49,-49 75,-75 26,-26 49,-49 75,-75 19,-20 13,-23 51,-22 44,0 35,4 58,-19 11,-12 71,-68 73,-76 0,0 -3,-42 31,-35 26,6 16,32 6,46 -24,4 -20,-5 -34,8l-61 62c-21,21 -16,26 -57,26 -46,-1 -37,-1 -61,23 -20,21 -160,156 -164,166 17,0 39,1 56,0 19,-1 25,-13 35,-23 15,-15 112,-115 122,-118 12,-3 101,-1 120,-1 17,-29 48,-19 47,7 0,13 -8,22 -22,23 -19,1 -18,-10 -29,-18 -32,0 -63,0 -94,0 -29,0 -26,5 -58,37 -13,13 -85,82 -90,93l575 0z"/>
   <path class="fil3" d="M5700 2595l0 13 -359 1c-9,3 -51,49 -62,59 -41,41 -79,79 -120,120l-122 121c-2,16 4,29 -9,38 -26,18 -53,-20 -31,-39 13,-11 20,2 33,-9l263 -264c15,-14 18,-14 25,-27 -20,0 -41,0 -61,0 -32,0 -29,1 -44,17l-245 245c-22,21 -39,32 -41,49 -2,12 0,19 -7,26 -33,29 -66,-41 -14,-41 14,-1 9,2 19,-7l46 -47c83,-83 163,-162 245,-245 15,-15 25,-10 51,-10 21,0 42,0 63,0l370 0z"/>
   <path class="fil1" d="M5700 3057l0 12c-233,-1 -467,0 -700,0 -109,0 -86,13 -135,-38 -17,-18 -25,-11 -75,-11 -29,0 -24,-3 -56,-35l-130 -130c-21,-20 -2,-79 -11,-82l-12 -12c-7,-10 -5,-11 -4,-23 39,-38 68,17 30,33 0,17 -2,42 0,58 1,20 66,76 82,91 87,89 72,92 148,87 -6,-14 -61,-65 -72,-76 -92,-91 -84,-67 -84,-136 1,-40 4,-34 -18,-56l-295 -294c-7,-7 -12,-13 -18,-19 -16,-15 -9,-4 -29,-8 -24,-5 -19,-38 -4,-45 36,-7 31,12 35,38 55,49 101,98 145,144l109 109c10,10 25,27 37,35 0,-102 15,-63 -100,-179l-105 -105c-7,-3 -52,2 -42,-33 13,-25 45,-22 47,4 1,19 -6,13 7,26l107 107c29,28 56,56 85,85 38,36 -18,92 39,133 1,-90 -1,-181 0,-272 1,-39 -7,-33 -53,-80 -16,-16 -59,-54 -68,-69 -15,0 -27,2 -35,-9 -7,-10 -5,-24 2,-31 8,-8 22,-9 32,-2 13,10 5,20 10,33 2,5 80,83 88,88l56 -54c16,-15 8,-6 11,-28 7,-45 69,-10 40,20 -9,9 -21,5 -34,6l-63 66c10,14 25,18 26,37 2,21 -1,45 1,67 6,-4 36,-33 41,-39 13,-18 -4,-50 11,-69 58,-67 44,5 44,-195 0,-78 3,-48 -13,-67 -17,-21 7,-47 29,-36 8,3 15,13 13,25 -2,14 -10,13 -17,24l0 194c0,28 -8,28 -22,42 -10,10 -26,19 -28,37 -6,51 20,24 -42,87 -16,17 -19,23 -16,50l87 -86c12,-11 14,-9 16,-27 1,-15 3,-24 17,-27 33,-7 39,37 15,45 -32,11 0,-19 -53,34l-65 65c-9,8 -16,11 -18,26 -2,24 0,66 1,92 14,-8 105,-101 102,-103l0 -6c0,-1 0,-2 1,-3 3,-49 56,-29 45,5 -7,23 -25,9 -38,16l-90 89c-29,28 -21,26 -21,103 0,77 -8,49 92,149l120 123 795 0z"/>
  </g>
 </g>
</svg>
