<?xml version="1.0" encoding="UTF-8"?>
<!DOCTYPE svg PUBLIC "-//W3C//DTD SVG 1.1//EN" "http://www.w3.org/Graphics/SVG/1.1/DTD/svg11.dtd">
<!-- Creator: CorelDRAW X7 -->
<svg xmlns="http://www.w3.org/2000/svg" xml:space="preserve" width="130.475mm" height="317.068mm" version="1.1" style="shape-rendering:geometricPrecision; text-rendering:geometricPrecision; image-rendering:optimizeQuality; fill-rule:evenodd; clip-rule:evenodd"
viewBox="0 0 113842 276648"
 xmlns:xlink="http://www.w3.org/1999/xlink">
 <defs>
  <style type="text/css">
   <![CDATA[
    .fil1 {fill:#9ABA9E}
    .fil0 {fill:url(#id0)}
   ]]>
  </style>
  <linearGradient id="id0" gradientUnits="userSpaceOnUse" x1="23577.3" y1="258120" x2="90264.7" y2="18528.1">
   <stop offset="0" style="stop-opacity:1; stop-color:#1B1A67"/>
   <stop offset="1" style="stop-opacity:1; stop-color:#3C2E80"/>
  </linearGradient>
 </defs>
 <g id="Layer_x0020_1">
  <metadata id="CorelCorpID_0Corel-Layer"/>
  <g id="_509986928">
   <rect class="fil0" width="113842" height="276648"/>
   <path class="fil1" d="M107844 222l242 0c-19,5987 -4,11982 -1,17970 2,2795 256,2213 -762,3480 -346,431 -212,626 -208,1915 3,740 -57,631 -702,1449l-2592 3343c-409,526 -1592,39 -1638,273l-243 301c-210,182 -223,125 -466,97 -757,-986 343,-1728 664,-748 342,-4 833,38 1153,0 406,-48 1516,-1710 1826,-2107 1765,-2253 1832,-1861 1725,-3821 -271,175 -1298,1589 -1514,1868 -1814,2346 -1341,2149 -2707,2141 -812,-5 -688,-97 -1117,470l-5888 7575c-133,172 -258,301 -374,461 -296,408 -73,226 -159,737 -108,641 -757,502 -898,122 -130,-934 234,-792 753,-902 992,-1409 1957,-2597 2888,-3738l2163 -2780c206,-273 548,-653 699,-952 -2031,-20 -1241,-386 -3567,2569l-2094 2698c-66,158 29,1313 -657,1061 -509,-333 -447,-1139 77,-1194 375,-39 258,138 520,-195l2128 -2745c575,-740 1134,-1426 1695,-2183 722,-974 1853,466 2674,-1006 -1808,-4 -3625,26 -5432,-1 -780,-12 -674,203 -1605,1385 -313,396 -1088,1498 -1381,1724 8,391 30,706 -174,901 -196,187 -493,129 -631,-48 -147,-189 -167,-567 -32,-806 192,-336 388,-152 657,-275 101,-46 1656,-2060 1759,-2254l-1076 -1427c-306,-418 -132,-204 -569,-292 -896,-181 -188,-1768 401,-1032 191,239 113,543 126,867l1315 1630c289,-256 368,-639 742,-682 414,-48 897,30 1335,-16 -71,-141 -656,-933 -774,-1048 -355,-350 -1000,112 -1372,-293 -1352,-1474 82,-1121 -3910,-1125 -1545,-1 -957,-70 -1341,327 -420,435 -926,-174 -714,-748 72,-193 255,-382 507,-331 272,55 260,264 483,445l3864 -6c563,-2 559,215 846,582 198,252 383,664 742,715 1003,140 464,-528 1728,1072 333,421 459,482 998,401l-1710 -2221c-230,-308 -175,-372 -546,-407 -301,-28 -478,-74 -539,-449 -136,-853 738,-998 905,-369 214,805 -392,-18 674,1359l1295 1671c171,230 221,408 523,446 481,59 1323,1 1838,-7 -154,-371 -2011,-2722 -2056,-2625l-119 -16c-20,-2 -39,-2 -62,-4 -970,-99 -576,-1459 105,-1176 452,188 182,660 310,989l1782 2319c567,730 524,519 2066,517 1524,-3 979,205 2972,-2345l2444 -3096 6 -20410z"/>
   <path class="fil1" d="M106850 222l261 0c0,6161 -6,12323 1,18484 2,2484 283,1636 -1023,3346 -610,798 -1182,1515 -1797,2312 -242,314 -597,961 -1002,984 -1936,110 -1414,139 -3447,-2470 -1279,-1641 -2372,-3065 -3592,-4622 -313,-399 -596,-745 -900,-1156 -263,-353 -132,-327 -531,-335 -295,-6 -463,-125 -511,-472 -122,-886 739,-940 896,-372 227,819 -435,43 670,1448l5391 6932c480,618 309,720 1222,713 911,-6 936,151 1398,-549 -113,-392 -2310,-3120 -2420,-3160 -231,-85 -490,35 -642,-208 -348,-551 175,-1307 659,-929 463,361 -184,459 468,1282 497,627 1770,2393 2134,2676 288,-166 1950,-2413 2243,-2793 678,-880 546,-850 526,-3147 -5,-623 -314,-810 -591,-1169 -513,-662 -983,-1259 -1496,-1926 -510,-663 -978,-1262 -1498,-1925 -391,-498 -449,-333 -439,-1305 12,-1128 90,-898 -378,-1495 -229,-292 -1354,-1821 -1516,-1881 -1,0 -836,84 -690,-788 112,-666 621,-428 905,-148 83,600 -99,510 159,862l1237 1576c417,535 535,399 525,1444 -11,1184 -21,958 458,1571 414,530 3121,4105 3314,4218 12,-431 24,-1001 8,-1427 -19,-495 -263,-655 -461,-908 -296,-380 -2309,-2884 -2360,-3127 -66,-310 -19,-2591 -16,-3091 -591,-431 -386,-1229 132,-1218 259,5 451,219 465,566 19,505 -195,464 -360,764 3,800 0,1600 -2,2400 -1,760 104,680 736,1492 258,332 1641,2193 1855,2307l9 -14756z"/>
   <path class="fil1" d="M98625 222l255 0 27 9218c58,232 966,1318 1172,1583 815,1052 1577,2037 2394,3080l2415 3145c328,57 578,-94 753,231 363,674 -389,1353 -763,800 -229,-337 30,-526 -191,-859l-5263 -6754c-281,-378 -278,-460 -548,-641 6,526 7,1053 2,1580 -7,804 11,723 336,1128l4891 6289c435,564 649,1009 980,1058 238,36 382,-10 520,183 592,827 -810,1691 -824,344 -3,-362 48,-239 -131,-483l-938 -1194c-1649,-2121 -3239,-4169 -4894,-6287 -291,-372 -195,-629 -194,-1297 0,-542 2,-1084 1,-1626l0 -9498z"/>
   <path class="fil1" d="M5998 259l-242 0c19,5988 5,11982 1,17971 -2,2794 -255,2213 762,3480 346,430 212,625 208,1914 -2,740 58,631 702,1449l2593 3343c408,526 1591,40 1637,273l243 301c210,183 224,125 466,98 757,-987 -342,-1729 -664,-748 -342,-5 -833,37 -1153,-1 -406,-47 -1515,-1710 -1826,-2106 -1765,-2254 -1832,-1861 -1725,-3821 272,174 1298,1589 1514,1867 1814,2346 1341,2150 2707,2141 812,-5 688,-97 1117,470l5889 7575c132,172 257,301 373,461 296,409 73,226 159,737 108,641 757,502 899,122 130,-933 -234,-791 -754,-902 -992,-1408 -1957,-2596 -2888,-3738l-2162 -2779c-206,-274 -549,-654 -699,-953 2030,-20 1240,-386 3566,2569l2095 2698c66,158 -30,1313 656,1061 509,-332 447,-1139 -77,-1194 -375,-39 -257,138 -519,-195l-2129 -2745c-574,-740 -1134,-1426 -1695,-2182 -721,-975 -1852,465 -2674,-1006 1808,-4 3625,25 5432,-2 781,-12 674,204 1606,1385 312,396 1088,1499 1381,1725 -9,391 -31,705 174,901 195,186 492,129 630,-48 147,-190 168,-568 32,-806 -192,-336 -388,-153 -657,-275 -101,-46 -1656,-2061 -1758,-2255l1075 -1427c307,-418 133,-204 569,-292 896,-180 188,-1767 -400,-1032 -192,240 -114,543 -127,867l-1315 1630c-289,-256 -368,-638 -742,-682 -414,-48 -897,30 -1335,-16 71,-141 657,-933 774,-1048 356,-349 1000,112 1372,-292 1352,-1474 -81,-1121 3910,-1125 1546,-2 957,-70 1341,327 421,434 926,-175 714,-748 -71,-194 -254,-383 -507,-332 -272,56 -260,264 -483,445l-3864 -5c-563,-3 -559,215 -846,582 -197,251 -383,664 -741,714 -1004,140 -464,-528 -1729,1073 -333,421 -459,482 -998,400l1711 -2221c229,-308 175,-371 545,-406 301,-29 479,-75 539,-450 136,-853 -738,-998 -905,-369 -214,805 393,-18 -674,1359l-1295 1671c-171,230 -220,409 -522,446 -482,59 -1324,1 -1839,-7 155,-370 2012,-2721 2056,-2625l119 -15c20,-2 40,-2 62,-5 970,-99 576,-1459 -105,-1176 -452,188 -182,661 -310,989l-1781 2319c-567,730 -525,520 -2066,517 -1525,-3 -980,206 -2973,-2345l-2443 -3096 -7 -20410z"/>
   <path class="fil1" d="M6992 259l-261 0c0,6161 6,12324 0,18484 -3,2485 -284,1636 1022,3346 610,798 1182,1515 1797,2312 242,315 597,961 1002,984 1936,110 1415,139 3448,-2470 1278,-1640 2372,-3065 3592,-4622 312,-398 595,-745 900,-1155 262,-354 132,-327 530,-336 295,-6 464,-125 511,-472 123,-885 -739,-939 -896,-372 -227,820 435,43 -670,1448l-5390 6932c-481,618 -310,720 -1222,713 -912,-6 -937,152 -1399,-549 113,-392 2311,-3120 2420,-3160 231,-85 490,35 643,-207 347,-552 -175,-1307 -660,-930 -462,361 184,460 -468,1283 -497,627 -1770,2392 -2134,2675 -288,-165 -1950,-2412 -2243,-2792 -678,-880 -546,-851 -526,-3148 5,-623 314,-809 592,-1168 512,-663 982,-1259 1495,-1927 510,-663 978,-1262 1498,-1924 391,-499 449,-334 439,-1306 -12,-1128 -89,-898 378,-1494 229,-293 1354,-1822 1516,-1881 2,-1 836,83 690,-788 -111,-667 -620,-428 -905,-148 -82,599 99,510 -158,861l-1237 1576c-417,535 -536,399 -526,1444 11,1185 21,958 -458,1571 -414,531 -3121,4106 -3313,4218 -13,-431 -25,-1001 -9,-1426 19,-496 263,-655 461,-909 297,-380 2309,-2883 2361,-3126 65,-311 18,-2592 15,-3092 591,-431 386,-1229 -132,-1218 -259,5 -451,220 -464,566 -20,506 194,465 359,764 -2,801 1,1600 2,2400 1,760 -104,681 -735,1492 -259,332 -1642,2193 -1856,2307l-9 -14756z"/>
   <path class="fil1" d="M15218 259l-256 0 -26 9218c-59,233 -967,1318 -1172,1583 -816,1052 -1578,2037 -2395,3081l-2415 3144c-327,57 -578,-94 -753,231 -363,674 389,1353 763,801 229,-338 -30,-527 191,-860l5263 -6754c281,-378 278,-460 548,-641 -6,526 -7,1053 -2,1580 7,805 -10,723 -335,1129l-4891 6288c-436,564 -650,1009 -980,1059 -238,35 -383,-11 -521,182 -592,827 811,1691 824,345 4,-362 -48,-239 132,-484l938 -1194c1648,-2121 3238,-4168 4893,-6286 291,-373 195,-630 194,-1297 0,-542 -2,-1085 -1,-1626l1 -9499z"/>
   <path class="fil1" d="M5998 259l-242 0c19,5988 5,11982 1,17971 -2,2794 -255,2213 762,3480 346,430 212,625 208,1914 -2,740 58,631 702,1449l2593 3343c408,526 1591,40 1637,273l243 301c210,183 224,125 466,98 757,-987 -342,-1729 -664,-748 -342,-5 -833,37 -1153,-1 -406,-47 -1515,-1710 -1826,-2106 -1765,-2254 -1832,-1861 -1725,-3821 272,174 1298,1589 1514,1867 1814,2346 1341,2150 2707,2141 812,-5 688,-97 1117,470l5889 7575c132,172 257,301 373,461 296,409 73,226 159,737 108,641 757,502 899,122 130,-933 -234,-791 -754,-902 -992,-1408 -1957,-2596 -2888,-3738l-2162 -2779c-206,-274 -549,-654 -699,-953 2030,-20 1240,-386 3566,2569l2095 2698c66,158 -30,1313 656,1061 509,-332 447,-1139 -77,-1194 -375,-39 -257,138 -519,-195l-2129 -2745c-574,-740 -1134,-1426 -1695,-2182 -721,-975 -1852,465 -2674,-1006 1808,-4 3625,25 5432,-2 781,-12 674,204 1606,1385 312,396 1088,1499 1381,1725 -9,391 -31,705 174,901 195,186 492,129 630,-48 147,-190 168,-568 32,-806 -192,-336 -388,-153 -657,-275 -101,-46 -1656,-2061 -1758,-2255l1075 -1427c307,-418 133,-204 569,-292 896,-180 188,-1767 -400,-1032 -192,240 -114,543 -127,867l-1315 1630c-289,-256 -368,-638 -742,-682 -414,-48 -897,30 -1335,-16 71,-141 657,-933 774,-1048 356,-349 1000,112 1372,-292 1352,-1474 -81,-1121 3910,-1125 1546,-2 957,-70 1341,327 421,434 926,-175 714,-748 -71,-194 -254,-383 -507,-332 -272,56 -260,264 -483,445l-3864 -5c-563,-3 -559,215 -846,582 -197,251 -383,664 -741,714 -1004,140 -464,-528 -1729,1073 -333,421 -459,482 -998,400l1711 -2221c229,-308 175,-371 545,-406 301,-29 479,-75 539,-450 136,-853 -738,-998 -905,-369 -214,805 393,-18 -674,1359l-1295 1671c-171,230 -220,409 -522,446 -482,59 -1324,1 -1839,-7 155,-370 2012,-2721 2056,-2625l119 -15c20,-2 40,-2 62,-5 970,-99 576,-1459 -105,-1176 -452,188 -182,661 -310,989l-1781 2319c-567,730 -525,520 -2066,517 -1525,-3 -980,206 -2973,-2345l-2443 -3096 -7 -20410z"/>
  </g>
 </g>
</svg>
