<?xml version="1.0" encoding="UTF-8"?>
<!DOCTYPE svg PUBLIC "-//W3C//DTD SVG 1.1//EN" "http://www.w3.org/Graphics/SVG/1.1/DTD/svg11.dtd">
<!-- Creator: CorelDRAW X7 -->
<svg xmlns="http://www.w3.org/2000/svg" xml:space="preserve" width="130.475mm" height="73.1059mm" version="1.1" style="shape-rendering:geometricPrecision; text-rendering:geometricPrecision; image-rendering:optimizeQuality; fill-rule:evenodd; clip-rule:evenodd"
viewBox="0 0 5699 3193"
 xmlns:xlink="http://www.w3.org/1999/xlink">
 <defs>
  <style type="text/css">
   <![CDATA[
    .fil0 {fill:#0C0C3B}
    .fil1 {fill:#9ABA9E}
   ]]>
  </style>
 </defs>
 <g id="Layer_x0020_1">
  <metadata id="CorelCorpID_0Corel-Layer"/>
  <rect class="fil0" width="5699" height="3193"/>
  <g id="_444189008">
   <g>
    <path class="fil1" d="M0 2426l0 12c233,-1 466,0 700,0 108,0 86,13 135,-38 17,-17 24,-11 75,-11 28,1 24,-2 56,-35l130 -129c21,-21 2,-80 11,-82l11 -13c8,-10 5,-11 4,-23 -38,-38 -67,17 -29,33 0,17 2,42 0,58 -2,20 -66,76 -82,91 -88,89 -72,92 -149,87 7,-14 62,-65 73,-76 91,-91 84,-67 83,-136 0,-40 -3,-34 19,-55l295 -295c6,-7 11,-13 18,-19 15,-15 8,-4 28,-8 25,-5 20,-38 5,-45 -36,-6 -31,12 -35,38 -55,49 -101,98 -146,144l-108 109c-10,10 -25,27 -37,35 -1,-102 -15,-62 100,-179l105 -105c6,-3 51,2 41,-33 -12,-25 -44,-22 -46,4 -2,19 5,13 -8,26l-106 107c-29,29 -56,57 -85,85 -38,36 18,92 -40,134 0,-91 1,-182 0,-272 0,-39 8,-34 54,-81 16,-15 59,-54 67,-69 16,1 28,2 35,-9 8,-9 5,-24 -1,-31 -8,-8 -23,-9 -32,-2 -13,10 -6,20 -10,33 -2,5 -81,83 -88,88l-56 -54c-16,-15 -8,-6 -11,-28 -7,-45 -69,-10 -40,20 9,9 21,6 33,6l64 66c-10,14 -25,18 -27,37 -2,21 1,45 0,67 -6,-4 -37,-33 -41,-39 -14,-18 4,-50 -12,-68 -57,-68 -43,4 -43,-196 0,-78 -3,-48 12,-67 17,-21 -6,-47 -29,-36 -7,4 -15,13 -13,25 3,14 11,13 18,25l0 193c-1,28 8,28 22,42 10,10 26,19 28,37 5,51 -21,24 42,87 16,17 18,23 15,50l-86 -86c-12,-11 -15,-8 -16,-27 -1,-15 -3,-24 -17,-27 -34,-7 -39,37 -15,45 32,11 -1,-19 53,34l65 65c9,8 16,11 17,26 3,24 1,66 0,92 -14,-8 -106,-101 -102,-103l-1 -6c0,-1 0,-2 0,-3 -4,-48 -57,-29 -46,5 8,23 26,9 39,16l90 89c29,28 20,26 20,103 0,77 8,50 -91,149l-120 123 -795 0z"/>
    <path class="fil1" d="M0 2376l0 13c240,0 480,0 720,0 96,0 63,14 130,-51 31,-30 59,-59 90,-90 12,-12 37,-30 38,-50 4,-97 6,-71 -96,-173 -64,-64 -119,-118 -180,-179 -15,-16 -29,-30 -45,-46 -14,-13 -13,-6 -13,-26 0,-15 -5,-23 -18,-26 -35,-6 -37,37 -15,45 32,12 2,-22 57,34l269 270c24,24 28,15 28,61 0,45 6,47 -21,70 -15,-6 -122,-116 -123,-121 -4,-12 1,-25 -8,-33 -22,-17 -51,9 -36,33 14,24 17,-9 49,24 25,25 94,89 105,107 -7,14 -94,97 -109,112 -34,34 -33,27 -123,26 -24,0 -31,-15 -45,-29 -26,-26 -49,-49 -75,-75 -26,-26 -49,-49 -75,-75 -19,-20 -13,-23 -51,-22 -44,1 -35,4 -58,-19 -11,-11 -71,-68 -73,-76 0,0 3,-42 -31,-34 -26,5 -17,31 -6,45 24,4 20,-5 34,8l61 62c21,21 16,27 56,26 46,-1 38,-1 62,23 20,21 159,156 164,166 -17,0 -39,1 -56,0 -19,-1 -25,-13 -35,-23 -15,-15 -112,-115 -122,-118 -12,-3 -101,-1 -120,-1 -17,-29 -48,-19 -48,7 1,13 9,22 22,23 20,1 18,-10 30,-18 31,0 62,0 94,0 29,0 26,5 58,37 13,13 85,82 89,93l-574 0z"/>
    <path class="fil1" d="M0 1964l0 13 359 2c9,2 51,48 61,58 41,41 80,79 120,120l123 121c2,16 -4,29 9,38 26,18 52,-20 31,-39 -13,-11 -21,2 -33,-9l-263 -264c-15,-14 -18,-13 -25,-27 20,0 41,0 61,0 31,0 28,1 44,17l245 245c22,22 39,32 41,49 1,12 0,19 7,26 32,30 66,-41 14,-41 -14,-1 -10,2 -19,-7l-47 -47c-82,-82 -162,-162 -244,-245 -15,-15 -25,-10 -51,-10 -21,0 -42,0 -63,0l-370 0z"/>
    <path class="fil1" d="M0 2426l0 12c233,-1 466,0 700,0 108,0 86,13 135,-38 17,-17 24,-11 75,-11 28,1 24,-2 56,-35l130 -129c21,-21 2,-80 11,-82l11 -13c8,-10 5,-11 4,-23 -38,-38 -67,17 -29,33 0,17 2,42 0,58 -2,20 -66,76 -82,91 -88,89 -72,92 -149,87 7,-14 62,-65 73,-76 91,-91 84,-67 83,-136 0,-40 -3,-34 19,-55l295 -295c6,-7 11,-13 18,-19 15,-15 8,-4 28,-8 25,-5 20,-38 5,-45 -36,-6 -31,12 -35,38 -55,49 -101,98 -146,144l-108 109c-10,10 -25,27 -37,35 -1,-102 -15,-62 100,-179l105 -105c6,-3 51,2 41,-33 -12,-25 -44,-22 -46,4 -2,19 5,13 -8,26l-106 107c-29,29 -56,57 -85,85 -38,36 18,92 -40,134 0,-91 1,-182 0,-272 0,-39 8,-34 54,-81 16,-15 59,-54 67,-69 16,1 28,2 35,-9 8,-9 5,-24 -1,-31 -8,-8 -23,-9 -32,-2 -13,10 -6,20 -10,33 -2,5 -81,83 -88,88l-56 -54c-16,-15 -8,-6 -11,-28 -7,-45 -69,-10 -40,20 9,9 21,6 33,6l64 66c-10,14 -25,18 -27,37 -2,21 1,45 0,67 -6,-4 -37,-33 -41,-39 -14,-18 4,-50 -12,-68 -57,-68 -43,4 -43,-196 0,-78 -3,-48 12,-67 17,-21 -6,-47 -29,-36 -7,4 -15,13 -13,25 3,14 11,13 18,25l0 193c-1,28 8,28 22,42 10,10 26,19 28,37 5,51 -21,24 42,87 16,17 18,23 15,50l-86 -86c-12,-11 -15,-8 -16,-27 -1,-15 -3,-24 -17,-27 -34,-7 -39,37 -15,45 32,11 -1,-19 53,34l65 65c9,8 16,11 17,26 3,24 1,66 0,92 -14,-8 -106,-101 -102,-103l-1 -6c0,-1 0,-2 0,-3 -4,-48 -57,-29 -46,5 8,23 26,9 39,16l90 89c29,28 20,26 20,103 0,77 8,50 -91,149l-120 123 -795 0z"/>
   </g>
   <g>
    <path class="fil1" d="M5699 2426l0 12c-233,-1 -466,0 -699,0 -109,0 -86,13 -136,-38 -16,-17 -24,-11 -74,-11 -29,1 -25,-2 -57,-35l-130 -129c-20,-21 -1,-80 -10,-82l-12 -13c-7,-10 -5,-11 -4,-23 38,-38 67,17 29,33 0,17 -1,42 0,58 2,20 67,76 82,91 88,89 73,92 149,87 -7,-14 -62,-65 -73,-76 -91,-91 -83,-67 -83,-136 0,-40 4,-34 -18,-55l-295 -295c-7,-7 -12,-13 -18,-19 -16,-15 -9,-4 -29,-8 -25,-5 -19,-38 -5,-45 37,-6 31,12 35,38 55,49 102,98 146,144l108 109c11,10 26,27 37,35 1,-102 15,-62 -100,-179l-105 -105c-6,-3 -51,2 -41,-33 13,-25 44,-22 46,4 2,19 -5,13 8,26l107 107c29,29 55,57 85,85 38,36 -18,92 39,134 0,-91 -1,-182 0,-272 0,-39 -8,-34 -54,-81 -15,-15 -58,-54 -67,-69 -15,1 -27,2 -35,-9 -7,-9 -5,-24 2,-31 7,-8 22,-9 31,-2 13,10 6,20 11,33 2,5 80,83 88,88l55 -54c16,-15 8,-6 12,-28 7,-45 68,-10 40,20 -10,9 -21,6 -34,6l-63 66c9,14 24,18 26,37 2,21 -1,45 1,67 5,-4 36,-33 40,-39 14,-18 -4,-50 12,-68 57,-68 43,4 44,-196 0,-78 2,-48 -13,-67 -17,-21 7,-47 29,-36 8,4 15,13 13,25 -2,14 -10,13 -17,25l0 193c0,28 -9,28 -23,42 -10,10 -26,19 -28,37 -5,51 21,24 -41,87 -17,17 -19,23 -16,50l87 -86c11,-11 14,-8 15,-27 1,-15 3,-24 18,-27 33,-7 39,37 14,45 -31,11 1,-19 -53,34l-65 65c-9,8 -16,11 -17,26 -2,24 0,66 0,92 15,-8 106,-101 102,-103l1 -6c0,-1 0,-2 0,-3 4,-48 57,-29 46,5 -7,23 -26,9 -39,16l-90 89c-28,28 -20,26 -20,103 0,77 -8,50 91,149l121 123 794 0z"/>
    <path class="fil1" d="M5699 2376l0 13c-239,0 -479,0 -719,0 -97,0 -64,14 -130,-51 -32,-30 -59,-59 -90,-90 -13,-12 -38,-30 -39,-50 -4,-97 -5,-71 96,-173 64,-64 120,-118 180,-179 16,-16 29,-30 45,-46 14,-13 13,-6 13,-26 1,-15 5,-23 19,-26 34,-6 36,37 14,45 -32,12 -1,-22 -56,34l-270 270c-24,24 -28,15 -28,61 0,45 -6,47 22,70 15,-6 121,-116 123,-121 3,-12 -2,-25 8,-33 21,-17 51,9 36,33 -14,24 -18,-9 -50,24 -24,25 -93,89 -104,107 6,14 94,97 108,112 35,34 34,27 123,26 24,0 32,-15 46,-29 25,-26 49,-49 75,-75 25,-26 49,-49 74,-75 20,-20 13,-23 51,-22 44,1 35,4 58,-19 12,-11 71,-68 74,-76 0,0 -4,-42 30,-34 26,5 17,31 6,45 -23,4 -20,-5 -33,8l-62 62c-21,21 -15,27 -56,26 -46,-1 -37,-1 -61,23 -21,21 -160,156 -164,166 16,0 39,1 55,0 19,-1 26,-13 36,-23 14,-15 112,-115 121,-118 12,-3 101,-1 121,-1 16,-29 47,-19 47,7 0,13 -9,22 -22,23 -20,1 -18,-10 -30,-18 -31,0 -62,0 -93,0 -30,0 -27,5 -58,37 -13,13 -86,82 -90,93l574 0z"/>
    <path class="fil1" d="M5699 1964l0 13 -359 2c-9,2 -51,48 -61,58 -41,41 -79,79 -120,120l-122 121c-3,16 3,29 -9,38 -27,18 -53,-20 -32,-39 14,-11 21,2 34,-9l263 -264c14,-14 18,-13 25,-27 -21,0 -41,0 -62,0 -31,0 -28,1 -44,17l-245 245c-21,22 -39,32 -41,49 -1,12 1,19 -7,26 -32,30 -66,-41 -13,-41 14,-1 9,2 19,-7l46 -47c83,-82 162,-162 245,-245 14,-15 24,-10 50,-10 21,0 42,0 64,0l369 0z"/>
    <path class="fil1" d="M5699 2426l0 12c-233,-1 -466,0 -699,0 -109,0 -86,13 -136,-38 -16,-17 -24,-11 -74,-11 -29,1 -25,-2 -57,-35l-130 -129c-20,-21 -1,-80 -10,-82l-12 -13c-7,-10 -5,-11 -4,-23 38,-38 67,17 29,33 0,17 -1,42 0,58 2,20 67,76 82,91 88,89 73,92 149,87 -7,-14 -62,-65 -73,-76 -91,-91 -83,-67 -83,-136 0,-40 4,-34 -18,-55l-295 -295c-7,-7 -12,-13 -18,-19 -16,-15 -9,-4 -29,-8 -25,-5 -19,-38 -5,-45 37,-6 31,12 35,38 55,49 102,98 146,144l108 109c11,10 26,27 37,35 1,-102 15,-62 -100,-179l-105 -105c-6,-3 -51,2 -41,-33 13,-25 44,-22 46,4 2,19 -5,13 8,26l107 107c29,29 55,57 85,85 38,36 -18,92 39,134 0,-91 -1,-182 0,-272 0,-39 -8,-34 -54,-81 -15,-15 -58,-54 -67,-69 -15,1 -27,2 -35,-9 -7,-9 -5,-24 2,-31 7,-8 22,-9 31,-2 13,10 6,20 11,33 2,5 80,83 88,88l55 -54c16,-15 8,-6 12,-28 7,-45 68,-10 40,20 -10,9 -21,6 -34,6l-63 66c9,14 24,18 26,37 2,21 -1,45 1,67 5,-4 36,-33 40,-39 14,-18 -4,-50 12,-68 57,-68 43,4 44,-196 0,-78 2,-48 -13,-67 -17,-21 7,-47 29,-36 8,4 15,13 13,25 -2,14 -10,13 -17,25l0 193c0,28 -9,28 -23,42 -10,10 -26,19 -28,37 -5,51 21,24 -41,87 -17,17 -19,23 -16,50l87 -86c11,-11 14,-8 15,-27 1,-15 3,-24 18,-27 33,-7 39,37 14,45 -31,11 1,-19 -53,34l-65 65c-9,8 -16,11 -17,26 -2,24 0,66 0,92 15,-8 106,-101 102,-103l1 -6c0,-1 0,-2 0,-3 4,-48 57,-29 46,5 -7,23 -26,9 -39,16l-90 89c-28,28 -20,26 -20,103 0,77 -8,50 91,149l121 123 794 0z"/>
   </g>
  </g>
 </g>
</svg>
