<?xml version="1.0" encoding="UTF-8"?>
<!DOCTYPE svg PUBLIC "-//W3C//DTD SVG 1.1//EN" "http://www.w3.org/Graphics/SVG/1.1/DTD/svg11.dtd">
<!-- Creator: CorelDRAW X7 -->
<svg xmlns="http://www.w3.org/2000/svg" xml:space="preserve" width="130.475mm" height="170.086mm" version="1.1" style="shape-rendering:geometricPrecision; text-rendering:geometricPrecision; image-rendering:optimizeQuality; fill-rule:evenodd; clip-rule:evenodd"
viewBox="0 0 957142 1247719"
 xmlns:xlink="http://www.w3.org/1999/xlink">
 <defs>
  <style type="text/css">
   <![CDATA[
    .fil1 {fill:#9ABA9E}
    .fil0 {fill:url(#id0)}
   ]]>
  </style>
  <linearGradient id="id0" gradientUnits="userSpaceOnUse" x1="198229" y1="1.16416e+006" x2="758912" y2="83563.9">
   <stop offset="0" style="stop-opacity:1; stop-color:#1B1A67"/>
   <stop offset="1" style="stop-opacity:1; stop-color:#3C2E80"/>
  </linearGradient>
 </defs>
 <g id="Layer_x0020_1">
  <metadata id="CorelCorpID_0Corel-Layer"/>
  <rect class="fil0" width="957142" height="1247719"/>
  <path class="fil1" d="M906715 1448l2032 0c-157,39146 -38,78339 -5,117489 14,18270 2147,14469 -6411,22752 -2905,2812 -1781,4090 -1746,12518 20,4838 -486,4124 -5906,9471l-21794 21856c-3436,3439 -13378,258 -13767,1786l-2045 1966c-1766,1194 -1877,817 -3919,639 -6365,-6449 2883,-11301 5587,-4891 2875,-30 7000,246 9689,-1 3415,-313 12744,-11180 15357,-13774 14838,-14733 15404,-12166 14500,-24980 -2282,1141 -10912,10388 -12725,12211 -15256,15337 -11278,14049 -22762,13995 -6825,-32 -5784,-634 -9390,3073l-49510 49524c-1116,1123 -2165,1968 -3141,3015 -2490,2669 -610,1475 -1334,4816 -908,4193 -6368,3282 -7556,799 -1094,-6105 1966,-5175 6336,-5897 8339,-9210 16454,-16975 24283,-24438l18179 -18172c1731,-1790 4612,-4273 5877,-6229 -17075,-128 -10432,-2523 -29989,16797l-17607 17640c-553,1034 251,8582 -5522,6934 -4277,-2173 -3754,-7444 647,-7803 3153,-258 2169,901 4371,-1277l17895 -17948c4830,-4836 9537,-9321 14250,-14268 6067,-6368 15576,3045 22485,-6575 -15205,-28 -30476,165 -45671,-12 -6564,-76 -5666,1332 -13500,9054 -2626,2589 -9148,9800 -11611,11277 71,2555 259,4611 -1463,5889 -1643,1220 -4140,844 -5299,-314 -1238,-1236 -1410,-3709 -267,-5268 1611,-2197 3262,-998 5520,-1798 851,-301 13921,-13471 14786,-14742l-9042 -9327c-2578,-2732 -1114,-1335 -4783,-1909 -7539,-1180 -1581,-11555 3365,-6745 1608,1564 952,3550 1065,5666l11056 10657c2427,-1674 3092,-4175 6235,-4459 3480,-314 7546,196 11228,-106 -600,-923 -5521,-6097 -6508,-6851 -2990,-2285 -8412,733 -11533,-1912 -11372,-9636 683,-7327 -32878,-7354 -12993,-10 -8045,-458 -11275,2137 -3535,2840 -7786,-1141 -6003,-4889 603,-1267 2140,-2502 4265,-2167 2287,362 2184,1725 4062,2910l32486 -37c4730,-18 4697,1406 7114,3804 1657,1644 3220,4342 6233,4669 8434,917 3900,-3450 14531,7014 2797,2752 3856,3151 8389,2620l-14379 -14524c-1928,-2010 -1472,-2428 -4585,-2655 -2533,-186 -4025,-489 -4530,-2941 -1148,-5574 6203,-6523 7607,-2411 1796,5262 -3301,-116 5664,8887l10889 10925c1436,1500 1855,2670 4394,2912 4051,386 11127,8 15456,-44 -1298,-2421 -16911,-17793 -17282,-17162l-1001 -100c-171,-13 -336,-13 -525,-29 -8154,-647 -4840,-9541 883,-7689 3802,1230 1530,4318 2609,6466l14977 15161c4767,4770 4410,3396 17369,3378 12819,-19 8234,1345 24995,-15328l20540 -20244 58 -133437z"/>
  <path class="fil1" d="M898356 1448l2194 0c0,40281 -47,80569 5,120846 20,16243 2383,10694 -8600,21877 -5123,5216 -9937,9903 -15103,15113 -2040,2057 -5020,6283 -8430,6434 -16273,719 -11890,909 -28983,-16146 -10750,-10728 -19941,-20043 -30201,-30221 -2624,-2604 -5008,-4871 -7566,-7553 -2205,-2311 -1110,-2137 -4463,-2192 -2476,-41 -3893,-818 -4296,-3085 -1027,-5791 6217,-6145 7538,-2437 1908,5359 -3657,284 5633,9470l45319 45317c4038,4042 2605,4709 10274,4666 7665,-43 7871,988 11758,-3590 -951,-2563 -19425,-20401 -20343,-20662 -1945,-555 -4121,231 -5405,-1355 -2919,-3605 1471,-8547 5544,-6076 3890,2359 -1546,3003 3935,8384 4177,4099 14885,15642 17943,17490 2421,-1081 16396,-15771 18857,-18256 5704,-5754 4590,-5559 4425,-20577 -45,-4075 -2639,-5292 -4975,-7640 -4310,-4332 -8258,-8231 -12576,-12595 -4287,-4333 -8220,-8250 -12590,-12581 -3289,-3260 -3779,-2183 -3692,-8534 101,-7375 751,-5872 -3179,-9772 -1928,-1913 -11386,-11907 -12746,-12297 -11,-4 -7029,545 -5802,-5154 939,-4357 5217,-2798 7608,-965 695,3919 -829,3333 1333,5631l10402 10302c3506,3500 4499,2611 4417,9441 -92,7744 -179,6265 3848,10274 3482,3466 26245,26839 27862,27574 105,-2816 203,-6543 69,-9326 -155,-3241 -2209,-4282 -3872,-5940 -2493,-2482 -19416,-18850 -19847,-20440 -552,-2030 -155,-16941 -133,-20212 -4967,-2817 -3245,-8035 1114,-7964 2176,36 3788,1436 3903,3701 166,3304 -1634,3037 -3026,4998 25,5232 -1,10457 -12,15688 -10,4970 875,4449 6183,9754 2172,2170 13801,14340 15601,15086l75 -96476z"/>
  <path class="fil1" d="M829198 1448l2149 0 222 60267c494,1521 8126,8618 9855,10351 6856,6876 13265,13316 20131,20138l20304 20559c2755,374 4860,-614 6332,1510 3054,4407 -3273,8843 -6417,5234 -1924,-2209 252,-3442 -1607,-5618l-44248 -44161c-2362,-2469 -2335,-3004 -4604,-4189 51,3441 56,6887 17,10329 -61,5260 87,4729 2820,7379l41120 41115c3661,3686 5464,6593 8239,6918 2003,234 3214,-69 4378,1195 4979,5407 -6815,11053 -6929,2252 -30,-2368 406,-1564 -1105,-3162l-7887 -7805c-13860,-13866 -27228,-27254 -41142,-41100 -2448,-2436 -1641,-4115 -1634,-8480 5,-3543 20,-7088 12,-10630l-6 -62102z"/>
  <path class="fil1" d="M50427 1692l-2031 0c156,39147 37,78339 5,117489 -15,18270 -2146,14470 6411,22753 2906,2811 1781,4089 1746,12517 -20,4838 485,4125 5906,9472l21794 21855c3436,3439 13378,258 13767,1787l2044 1966c1767,1193 1878,816 3919,638 6366,-6449 -2882,-11301 -5587,-4891 -2875,-31 -7000,246 -9689,-1 -3414,-313 -12744,-11180 -15357,-13774 -14837,-14733 -15403,-12166 -14498,-24981 2281,1142 10912,10389 12724,12211 15255,15337 11279,14051 22762,13996 6825,-33 5784,-634 9390,3073l49509 49524c1117,1123 2165,1967 3142,3015 2490,2669 611,1475 1334,4816 907,4192 6368,3282 7556,799 1094,-6105 -1967,-5176 -6335,-5897 -8340,-9209 -16455,-16975 -24285,-24438l-18178 -18173c-1730,-1788 -4612,-4272 -5877,-6228 17074,-128 10432,-2523 29988,16797l17608 17640c554,1033 -251,8582 5522,6934 4277,-2173 3753,-7443 -647,-7803 -3153,-257 -2168,901 -4371,-1278l-17894 -17947c-4832,-4836 -9538,-9321 -14251,-14267 -6067,-6369 -15576,3045 -22485,-6576 15205,-27 30477,166 45671,-12 6564,-76 5666,1332 13500,9055 2626,2589 9148,9799 11611,11276 -71,2555 -259,4611 1463,5890 1643,1219 4141,843 5299,-314 1238,-1237 1409,-3709 267,-5268 -1611,-2198 -3262,-999 -5520,-1798 -852,-303 -13921,-13473 -14786,-14742l9041 -9328c2579,-2732 1115,-1334 4784,-1909 7538,-1180 1581,-11556 -3365,-6746 -1609,1566 -952,3551 -1065,5666l-11055 10658c-2428,-1674 -3092,-4175 -6236,-4459 -3481,-314 -7545,196 -11228,-107 601,-921 5521,-6096 6508,-6850 2990,-2284 8412,734 11533,-1912 11373,-9635 -683,-7327 32878,-7354 12993,-11 8046,-458 11276,2138 3533,2839 7784,-1142 6002,-4890 -603,-1268 -2141,-2502 -4265,-2167 -2288,362 -2183,1725 -4062,2911l-32487 -38c-4729,-17 -4696,1406 -7113,3804 -1658,1644 -3221,4342 -6233,4670 -8433,917 -3900,-3450 -14531,7013 -2798,2752 -3857,3151 -8389,2620l14380 -14523c1926,-2012 1471,-2428 4583,-2656 2535,-185 4025,-488 4531,-2941 1149,-5574 -6203,-6523 -7607,-2410 -1796,5262 3301,-117 -5664,8886l-10889 10925c-1436,1500 -1855,2670 -4394,2912 -4051,387 -11127,8 -15457,-44 1299,-2421 16911,-17793 17283,-17162l1001 -101c170,-12 336,-13 525,-27 8154,-648 4840,-9542 -883,-7691 -3803,1231 -1529,4318 -2609,6467l-14977 15161c-4768,4770 -4410,3396 -17369,3378 -12820,-18 -8234,1345 -24995,-15327l-20540 -20245 -59 -133437z"/>
  <path class="fil1" d="M58787 1692l-2193 0c0,40281 46,80570 -5,120846 -22,16243 -2384,10695 8599,21877 5124,5217 9937,9903 15103,15113 2040,2058 5020,6283 8430,6434 16274,719 11891,909 28982,-16147 10750,-10727 19943,-20041 30201,-30220 2625,-2604 5009,-4871 7568,-7553 2204,-2311 1109,-2137 4461,-2192 2476,-41 3894,-818 4296,-3085 1027,-5791 -6216,-6145 -7536,-2436 -1909,5358 3656,284 -5634,9469l-45319 45318c-4038,4041 -2605,4708 -10274,4665 -7665,-43 -7872,988 -11758,-3590 952,-2562 19425,-20400 20343,-20662 1945,-555 4121,232 5405,-1354 2919,-3606 -1470,-8547 -5544,-6077 -3890,2359 1546,3003 -3936,8383 -4176,4100 -14884,15643 -17942,17492 -2420,-1082 -16395,-15772 -18858,-18256 -5703,-5755 -4588,-5559 -4423,-20577 44,-4075 2638,-5294 4974,-7641 4311,-4331 8257,-8231 12576,-12596 4287,-4332 8220,-8249 12590,-12580 3289,-3259 3779,-2183 3692,-8535 -102,-7374 -751,-5871 3179,-9771 1927,-1913 11387,-11907 12745,-12297 13,-4 7030,545 5802,-5153 -938,-4359 -5216,-2798 -7607,-966 -695,3919 829,3333 -1333,5631l-10401 10302c-3506,3501 -4500,2611 -4419,9440 93,7745 179,6266 -3847,10274 -3482,3466 -26244,26840 -27863,27574 -105,-2815 -202,-6542 -69,-9324 157,-3242 2209,-4282 3874,-5940 2492,-2483 19415,-18852 19847,-20441 551,-2030 154,-16940 132,-20212 4967,-2816 3245,-8035 -1114,-7963 -2176,36 -3789,1435 -3903,3701 -167,3304 1634,3036 3025,4996 -24,5233 2,10458 13,15688 10,4971 -875,4450 -6183,9755 -2171,2171 -13802,14340 -15601,15085l-75 -96475z"/>
  <path class="fil1" d="M127945 1692l-2150 0 -221 60266c-494,1522 -8126,8619 -9854,10352 -6857,6877 -13266,13316 -20132,20138l-20304 20559c-2755,374 -4860,-614 -6332,1510 -3054,4408 3273,8843 6416,5234 1924,-2209 -251,-3442 1608,-5619l44248 -44159c2361,-2469 2335,-3005 4604,-4190 -51,3442 -57,6886 -17,10329 61,5260 -87,4729 -2819,7379l-41121 41115c-3662,3687 -5465,6593 -8240,6918 -2002,235 -3214,-69 -4378,1195 -4979,5407 6816,11053 6930,2252 30,-2368 -406,-1565 1105,-3162l7887 -7806c13860,-13865 27228,-27252 41142,-41099 2448,-2436 1640,-4115 1634,-8481 -5,-3542 -19,-7087 -11,-10629l5 -62102z"/>
  <path class="fil1" d="M50427 1692l-2031 0c156,39147 37,78339 5,117489 -15,18270 -2146,14470 6411,22753 2906,2811 1781,4089 1746,12517 -20,4838 485,4125 5906,9472l21794 21855c3436,3439 13378,258 13767,1787l2044 1966c1767,1193 1878,816 3919,638 6366,-6449 -2882,-11301 -5587,-4891 -2875,-31 -7000,246 -9689,-1 -3414,-313 -12744,-11180 -15357,-13774 -14837,-14733 -15403,-12166 -14498,-24981 2281,1142 10912,10389 12724,12211 15255,15337 11279,14051 22762,13996 6825,-33 5784,-634 9390,3073l49509 49524c1117,1123 2165,1967 3142,3015 2490,2669 611,1475 1334,4816 907,4192 6368,3282 7556,799 1094,-6105 -1967,-5176 -6335,-5897 -8340,-9209 -16455,-16975 -24285,-24438l-18178 -18173c-1730,-1788 -4612,-4272 -5877,-6228 17074,-128 10432,-2523 29988,16797l17608 17640c554,1033 -251,8582 5522,6934 4277,-2173 3753,-7443 -647,-7803 -3153,-257 -2168,901 -4371,-1278l-17894 -17947c-4832,-4836 -9538,-9321 -14251,-14267 -6067,-6369 -15576,3045 -22485,-6576 15205,-27 30477,166 45671,-12 6564,-76 5666,1332 13500,9055 2626,2589 9148,9799 11611,11276 -71,2555 -259,4611 1463,5890 1643,1219 4141,843 5299,-314 1238,-1237 1409,-3709 267,-5268 -1611,-2198 -3262,-999 -5520,-1798 -852,-303 -13921,-13473 -14786,-14742l9041 -9328c2579,-2732 1115,-1334 4784,-1909 7538,-1180 1581,-11556 -3365,-6746 -1609,1566 -952,3551 -1065,5666l-11055 10658c-2428,-1674 -3092,-4175 -6236,-4459 -3481,-314 -7545,196 -11228,-107 601,-921 5521,-6096 6508,-6850 2990,-2284 8412,734 11533,-1912 11373,-9635 -683,-7327 32878,-7354 12993,-11 8046,-458 11276,2138 3533,2839 7784,-1142 6002,-4890 -603,-1268 -2141,-2502 -4265,-2167 -2288,362 -2183,1725 -4062,2911l-32487 -38c-4729,-17 -4696,1406 -7113,3804 -1658,1644 -3221,4342 -6233,4670 -8433,917 -3900,-3450 -14531,7013 -2798,2752 -3857,3151 -8389,2620l14380 -14523c1926,-2012 1471,-2428 4583,-2656 2535,-185 4025,-488 4531,-2941 1149,-5574 -6203,-6523 -7607,-2410 -1796,5262 3301,-117 -5664,8886l-10889 10925c-1436,1500 -1855,2670 -4394,2912 -4051,387 -11127,8 -15457,-44 1299,-2421 16911,-17793 17283,-17162l1001 -101c170,-12 336,-13 525,-27 8154,-648 4840,-9542 -883,-7691 -3803,1231 -1529,4318 -2609,6467l-14977 15161c-4768,4770 -4410,3396 -17369,3378 -12820,-18 -8234,1345 -24995,-15327l-20540 -20245 -59 -133437z"/>
 </g>
</svg>
