<?xml version="1.0" encoding="UTF-8"?>
<!DOCTYPE svg PUBLIC "-//W3C//DTD SVG 1.1//EN" "http://www.w3.org/Graphics/SVG/1.1/DTD/svg11.dtd">
<!-- Creator: CorelDRAW X7 -->
<svg xmlns="http://www.w3.org/2000/svg" xml:space="preserve" width="130.475mm" height="73.1059mm" version="1.1" style="shape-rendering:geometricPrecision; text-rendering:geometricPrecision; image-rendering:optimizeQuality; fill-rule:evenodd; clip-rule:evenodd"
viewBox="0 0 5767 3231"
 xmlns:xlink="http://www.w3.org/1999/xlink">
 <defs>
  <style type="text/css">
   <![CDATA[
    .fil1 {fill:#9ABA9E}
    .fil0 {fill:url(#id0)}
   ]]>
  </style>
  <linearGradient id="id0" gradientUnits="userSpaceOnUse" x1="1194.39" y1="3014.89" x2="4572.65" y2="216.414">
   <stop offset="0" style="stop-opacity:1; stop-color:#1B1A67"/>
   <stop offset="1" style="stop-opacity:1; stop-color:#3C2E80"/>
  </linearGradient>
 </defs>
 <g id="Layer_x0020_1">
  <metadata id="CorelCorpID_0Corel-Layer"/>
  <rect class="fil0" width="5767" height="3231" rx="179" ry="147"/>
  <path class="fil1" d="M5463 9l12 0c0,236 0,472 0,708 1,110 13,87 -38,137 -18,17 -11,24 -11,75 0,29 -3,25 -35,57l-132 132c-20,21 -80,1 -83,11l-12 12c-11,7 -11,4 -24,3 -38,-39 18,-68 34,-29 17,0 42,1 59,0 20,-2 76,-67 92,-83 89,-89 93,-73 87,-151 -13,7 -65,63 -76,74 -92,92 -68,85 -137,84 -42,0 -35,-4 -57,19l-298 298c-7,7 -13,12 -19,18 -15,16 -4,9 -8,29 -6,26 -39,20 -46,5 -6,-37 12,-31 38,-35 51,-56 100,-103 147,-148l109 -109c11,-11 28,-26 36,-38 -103,0 -63,-15 -181,102l-106 106c-3,6 1,52 -33,42 -26,-13 -23,-45 4,-47 19,-2 13,5 26,-8l108 -108c29,-29 57,-56 86,-86 36,-39 93,18 135,-40 -92,0 -184,1 -275,0 -40,0 -34,8 -82,55 -15,15 -55,59 -69,68 0,15 1,27 -9,35 -10,7 -25,5 -32,-2 -8,-7 -9,-22 -2,-32 10,-13 20,-6 33,-10 6,-2 84,-82 90,-89l-55 -56c-15,-17 -7,-8 -29,-12 -45,-7 -9,-69 20,-41 10,10 6,22 7,35l67 64c14,-10 18,-25 37,-27 21,-2 46,1 68,-1 -4,-5 -34,-36 -39,-41 -18,-14 -51,4 -70,-11 -68,-59 4,-45 -198,-45 -78,0 -49,-3 -68,13 -21,17 -47,-7 -36,-29 3,-8 13,-15 26,-13 13,2 13,10 24,17l196 0c28,0 28,8 43,23 10,10 19,26 37,28 51,5 24,-21 88,42 17,17 23,19 50,16l-86 -88c-12,-12 -9,-14 -28,-16 -15,-1 -24,-2 -27,-17 -7,-34 37,-40 46,-15 10,32 -20,0 34,54l65 66c9,9 11,16 27,17 24,2 67,0 93,0 -8,-15 -102,-107 -104,-104l-6 0c-1,0 -2,0 -3,0 -50,-4 -30,-58 5,-47 23,8 9,26 16,39l90 92c29,28 26,20 104,20 78,0 50,8 151,-92l124 -122 0 -804z"/>
  <path class="fil1" d="M5413 9l13 0c0,242 0,485 0,728 0,98 14,64 -52,132 -31,31 -60,59 -91,91 -12,12 -30,38 -51,38 -98,5 -71,6 -174,-97 -65,-64 -120,-121 -182,-182 -16,-16 -30,-29 -46,-45 -13,-14 -6,-13 -27,-14 -15,0 -23,-5 -25,-18 -7,-35 37,-37 45,-15 11,32 -22,2 34,57l273 273c24,25 16,29 62,28 46,0 47,6 71,-21 -6,-16 -117,-123 -123,-125 -12,-3 -25,2 -32,-8 -18,-22 8,-51 33,-37 23,15 -9,19 24,51 25,25 89,94 108,105 14,-6 99,-95 113,-110 35,-34 28,-33 27,-124 0,-24 -16,-32 -30,-46 -26,-26 -50,-49 -76,-76 -26,-26 -49,-49 -76,-75 -19,-20 -22,-13 -22,-52 1,-44 5,-35 -19,-59 -12,-11 -69,-71 -77,-74 0,0 -42,4 -35,-31 6,-26 32,-17 46,-6 4,24 -5,20 8,34l63 62c21,21 27,16 26,57 0,47 -1,38 24,62 21,21 158,162 168,166 0,-17 1,-39 0,-56 -1,-19 -13,-26 -23,-36 -15,-15 -117,-113 -120,-123 -3,-12 -1,-102 -1,-122 -30,-17 -19,-48 7,-48 13,1 23,9 23,23 1,20 -9,18 -18,30 0,31 0,63 0,94 0,30 5,27 37,59 13,13 84,87 94,91l1 -581z"/>
  <path class="fil1" d="M4996 9l13 0 1 363c3,9 49,52 60,62 41,42 80,80 121,122l122 123c17,3 30,-3 39,10 18,26 -20,53 -39,31 -12,-13 1,-21 -10,-34l-266 -266c-15,-15 -14,-18 -28,-25 0,21 0,41 0,62 0,32 1,29 17,45l248 247c22,23 33,40 49,42 12,1 20,0 27,7 30,33 -41,67 -42,14 0,-14 2,-10 -7,-19l-47 -47c-84,-84 -164,-165 -248,-248 -15,-15 -10,-25 -10,-51 0,-21 0,-43 0,-64l0 -374z"/>
  <path class="fil1" d="M304 10l-12 0c1,236 0,472 0,708 0,110 -13,87 38,137 18,17 11,25 11,76 0,29 3,24 35,57l132 131c20,21 80,2 83,11l12 12c11,7 11,5 24,4 38,-39 -18,-68 -34,-30 -17,0 -42,2 -58,0 -21,-2 -77,-67 -93,-83 -89,-88 -93,-73 -87,-150 13,7 65,62 76,73 92,93 68,85 137,85 42,0 35,-4 57,18l298 299c7,6 13,12 19,18 15,16 4,9 8,29 6,25 39,20 46,5 6,-37 -12,-32 -38,-36 -51,-55 -99,-102 -147,-147l-109 -110c-11,-10 -28,-25 -36,-37 103,-1 63,-15 181,101l106 106c4,7 -1,52 33,42 26,-13 23,-45 -3,-47 -19,-1 -14,6 -27,-8l-108 -108c-29,-29 -57,-56 -85,-86 -37,-38 -94,19 -136,-39 92,0 184,1 275,0 40,-1 34,8 82,54 15,16 55,59 70,68 -1,16 -2,28 8,36 10,7 25,5 32,-2 8,-8 9,-23 2,-32 -10,-13 -20,-6 -33,-11 -6,-2 -84,-81 -89,-89l54 -56c16,-16 7,-8 29,-11 45,-8 9,-70 -20,-41 -10,9 -6,21 -7,34l-66 64c-15,-10 -19,-25 -38,-27 -21,-1 -46,2 -68,0 4,-6 34,-37 40,-41 18,-14 50,4 69,-12 69,-58 -4,-44 198,-44 78,0 49,-3 68,13 21,17 47,-7 36,-30 -3,-8 -13,-15 -25,-13 -14,2 -14,10 -25,18l-196 -1c-28,0 -28,9 -43,23 -10,10 -19,26 -37,28 -51,6 -24,-20 -88,43 -17,16 -23,19 -50,15l86 -87c12,-12 9,-15 28,-16 15,-1 24,-3 27,-18 7,-33 -37,-39 -45,-14 -11,31 19,-1 -35,53l-65 66c-9,9 -11,16 -27,18 -24,2 -67,0 -93,-1 8,-14 102,-107 104,-103l6 -1c1,0 2,0 3,0 50,-4 30,-57 -5,-46 -23,7 -9,26 -16,39l-90 91c-29,29 -26,21 -104,21 -78,-1 -50,8 -151,-93l-124 -122 0 -804z"/>
  <path class="fil1" d="M354 10l-13 0c0,243 0,486 0,728 0,98 -14,65 52,132 31,32 60,60 91,91 12,13 30,38 51,39 98,4 71,5 174,-97 65,-65 120,-121 182,-182 16,-16 30,-30 46,-46 13,-14 6,-13 27,-13 15,0 23,-5 26,-19 6,-35 -38,-37 -46,-14 -11,32 22,1 -34,57l-273 273c-24,24 -16,28 -62,28 -46,0 -47,6 -71,-22 6,-15 117,-123 123,-124 12,-4 25,1 33,-8 17,-22 -9,-52 -34,-37 -23,14 9,18 -24,50 -25,25 -89,95 -108,106 -14,-7 -99,-95 -113,-110 -35,-35 -28,-34 -27,-124 0,-25 16,-32 30,-46 26,-26 50,-50 76,-76 26,-26 49,-50 76,-76 19,-20 22,-13 22,-51 -1,-45 -5,-36 19,-59 12,-12 69,-72 77,-74 0,0 42,3 35,-31 -6,-27 -32,-17 -46,-6 -4,23 5,20 -8,34l-63 62c-21,21 -27,16 -26,57 0,46 1,37 -24,62 -21,21 -158,161 -167,166 -1,-17 -2,-40 -1,-56 1,-20 13,-26 23,-36 15,-15 117,-114 120,-123 3,-13 1,-102 1,-122 30,-17 19,-49 -7,-48 -13,0 -23,9 -23,22 -1,20 9,18 18,30 0,32 0,63 0,95 0,30 -5,27 -37,59 -13,13 -83,86 -94,90l-1 -581z"/>
  <path class="fil1" d="M771 10l-13 0 -1 363c-3,9 -49,52 -60,63 -41,41 -80,80 -121,121l-122 124c-17,2 -30,-4 -39,9 -18,27 20,53 39,32 12,-14 -1,-21 10,-34l266 -266c15,-15 14,-18 28,-26 0,21 0,42 0,63 0,31 0,28 -17,44l-248 248c-22,22 -33,40 -49,41 -12,2 -20,0 -27,8 -30,32 41,66 42,13 0,-14 -2,-9 7,-19l47 -47c84,-83 164,-164 248,-247 15,-15 10,-25 10,-52 0,-21 0,-42 0,-64l0 -374z"/>
  <path class="fil1" d="M5767 3040l0 10c-192,-1 -384,0 -576,0 -89,0 -71,11 -111,-31 -14,-15 -20,-9 -62,-9 -23,0 -20,-2 -46,-29l-107 -107c-17,-17 -2,-65 -9,-67l-10 -10c-5,-9 -4,-9 -3,-19 32,-32 56,14 24,27 0,14 -1,34 0,47 2,17 55,63 68,76 72,72 59,75 122,71 -5,-11 -51,-54 -60,-63 -75,-74 -69,-55 -68,-111 0,-34 3,-28 -15,-46l-243 -243c-6,-5 -10,-10 -15,-15 -13,-12 -7,-3 -23,-7 -21,-4 -17,-31 -4,-37 30,-5 25,10 29,31 45,41 83,81 119,119l89 89c9,9 21,23 31,29 1,-84 12,-51 -82,-147l-87 -86c-5,-3 -42,1 -34,-27 11,-21 37,-19 38,3 2,15 -4,11 7,21l88 88c23,24 45,47 70,70 31,30 -15,76 32,110 0,-74 -1,-149 0,-224 0,-32 -7,-27 -45,-66 -12,-13 -48,-45 -55,-57 -12,1 -22,2 -29,-7 -6,-8 -4,-20 2,-26 6,-6 18,-7 26,-1 10,8 5,16 8,27 2,4 67,68 73,72l45 -44c14,-13 7,-5 10,-23 6,-37 56,-8 33,16 -8,8 -18,5 -28,5l-52 54c8,12 20,16 22,31 1,17 -1,37 0,55 5,-3 30,-27 34,-32 11,-14 -4,-41 9,-56 47,-56 36,3 36,-162 0,-63 2,-39 -10,-55 -14,-17 5,-38 24,-29 6,3 12,10 10,21 -1,11 -8,10 -14,20l0 159c0,23 -7,23 -18,35 -8,8 -22,15 -23,30 -5,42 17,19 -35,71 -13,14 -15,19 -12,42l71 -71c10,-9 12,-7 13,-22 1,-13 2,-20 14,-23 27,-5 32,31 12,38 -26,9 1,-16 -44,27l-53 54c-8,7 -13,9 -14,21 -2,20 0,55 0,76 12,-6 87,-83 84,-85l0 -4c0,-1 0,-2 1,-3 3,-40 46,-24 37,4 -6,19 -21,8 -31,13l-75 73c-23,24 -16,22 -16,86 0,62 -7,40 75,122l99 101 654 0z"/>
  <path class="fil1" d="M5767 2999l0 11c-197,0 -395,0 -592,0 -80,0 -53,12 -108,-42 -25,-25 -48,-49 -74,-74 -10,-10 -30,-25 -31,-42 -4,-79 -5,-58 79,-142 53,-52 98,-97 148,-148 13,-13 24,-24 37,-37 11,-11 11,-5 11,-22 0,-12 4,-19 15,-21 28,-5 30,31 12,37 -26,10 -1,-18 -46,28l-223 222c-19,20 -23,13 -22,50 0,38 -5,39 17,58 13,-5 100,-95 101,-100 3,-9 -1,-20 7,-26 18,-15 42,7 30,27 -12,19 -15,-8 -41,19 -20,21 -77,73 -86,88 5,12 77,81 90,93 28,28 27,22 100,21 20,0 26,-13 38,-24 21,-21 40,-41 62,-62 21,-21 40,-40 61,-61 16,-17 11,-19 42,-19 36,1 29,4 48,-15 9,-10 58,-56 60,-63 0,0 -2,-34 25,-28 22,5 14,26 5,37 -19,4 -16,-4 -27,7l-51 51c-17,17 -13,22 -46,21 -38,0 -31,0 -51,19 -16,17 -131,129 -135,137 14,0 32,1 46,0 16,-1 21,-11 29,-19 12,-12 93,-95 100,-97 10,-3 83,-1 99,-1 14,-24 40,-16 39,6 0,10 -7,18 -18,19 -16,1 -15,-8 -24,-15 -26,0 -51,0 -77,0 -24,0 -22,4 -48,30 -11,11 -70,68 -74,77l473 0z"/>
  <path class="fil1" d="M5767 2660l0 11 -295 1c-8,2 -43,40 -51,48 -34,34 -65,65 -99,99l-101 99c-1,14 3,24 -7,31 -22,15 -43,-16 -26,-31 11,-10 17,1 28,-8l216 -217c12,-11 15,-11 21,-22 -17,0 -34,0 -51,0 -26,-1 -23,0 -36,13l-201 202c-18,18 -33,27 -34,40 -1,10 0,16 -6,22 -27,24 -54,-34 -11,-34 11,0 7,2 15,-6l39 -38c68,-68 133,-134 201,-202 12,-12 20,-8 42,-8 17,0 34,0 52,0l304 0z"/>
  <path class="fil1" d="M0 3040l0 10c192,-1 384,0 576,0 89,0 71,11 111,-31 14,-15 20,-9 62,-9 23,0 20,-2 46,-29l107 -107c17,-17 2,-65 9,-67l10 -10c6,-9 4,-9 3,-19 -32,-32 -56,14 -24,27 0,14 1,34 0,47 -2,17 -55,63 -68,76 -72,72 -59,75 -122,71 5,-11 51,-54 60,-63 75,-74 69,-55 68,-111 0,-34 -3,-28 15,-46l243 -243c6,-5 10,-10 15,-15 13,-12 7,-3 24,-7 20,-4 16,-31 3,-37 -29,-5 -25,10 -28,31 -46,41 -84,81 -120,119l-89 89c-9,9 -21,23 -31,29 0,-84 -12,-51 82,-147l87 -86c5,-3 42,1 34,-27 -11,-21 -37,-19 -38,3 -2,15 4,11 -7,21l-88 88c-23,24 -45,47 -69,70 -32,30 14,76 -33,110 0,-74 1,-149 0,-224 0,-32 7,-27 45,-66 12,-13 48,-45 55,-57 12,1 22,2 29,-7 6,-8 4,-20 -2,-26 -6,-6 -18,-7 -26,-1 -10,8 -5,16 -8,27 -2,4 -66,68 -73,72l-45 -44c-14,-13 -7,-5 -10,-23 -6,-37 -56,-8 -33,16 8,8 18,5 28,5l52 54c-8,12 -20,16 -22,31 -1,17 1,37 0,55 -5,-3 -30,-27 -34,-32 -11,-14 4,-41 -9,-56 -47,-56 -36,3 -36,-162 0,-63 -2,-39 10,-55 14,-17 -5,-38 -24,-29 -6,3 -12,10 -10,21 1,11 8,10 14,20l0 159c0,23 7,23 18,35 8,8 22,15 23,30 5,42 -17,19 35,71 13,14 15,19 13,42l-72 -71c-10,-9 -12,-7 -13,-22 -1,-13 -2,-20 -14,-23 -27,-5 -32,31 -12,38 26,9 0,-16 44,27l53 54c8,7 13,9 14,21 2,20 1,55 0,76 -12,-6 -87,-83 -84,-85l0 -4c0,-1 0,-2 0,-3 -4,-40 -47,-24 -38,4 6,19 21,8 32,13l74 73c23,24 16,22 16,86 0,62 7,40 -75,122l-99 101 -654 0z"/>
  <path class="fil1" d="M0 2999l0 11c197,0 395,0 592,0 80,0 53,12 108,-42 25,-25 48,-49 74,-74 10,-10 30,-25 31,-42 4,-79 5,-58 -79,-142 -53,-52 -98,-97 -148,-148 -13,-13 -24,-24 -37,-37 -11,-11 -11,-5 -11,-22 0,-12 -4,-19 -15,-21 -28,-5 -30,31 -12,37 26,10 1,-18 46,28l223 222c19,20 23,13 22,50 0,38 5,39 -17,58 -13,-5 -100,-95 -101,-100 -3,-9 1,-20 -7,-26 -18,-15 -42,7 -30,27 12,19 15,-8 41,19 20,21 77,73 86,88 -5,12 -77,81 -89,93 -29,28 -28,22 -101,21 -20,0 -26,-13 -38,-24 -21,-21 -40,-41 -62,-62 -21,-21 -40,-40 -61,-61 -16,-17 -11,-19 -42,-19 -36,1 -29,4 -48,-15 -9,-10 -58,-56 -60,-63 0,0 2,-34 -25,-28 -22,5 -14,26 -5,37 19,4 16,-4 27,7l51 51c17,17 13,22 46,21 38,0 31,0 51,19 17,17 131,129 135,137 -14,0 -32,1 -46,0 -16,-1 -21,-11 -29,-19 -12,-12 -93,-95 -100,-97 -10,-3 -83,-1 -99,-1 -14,-24 -40,-16 -39,6 0,10 7,18 18,19 16,1 15,-8 24,-15 26,0 51,0 77,0 24,0 22,4 48,30 11,11 70,68 74,77l-473 0z"/>
  <path class="fil1" d="M0 2660l0 11 295 1c8,2 43,40 51,48 34,34 65,65 99,99l101 99c1,14 -3,24 7,31 22,15 43,-16 26,-31 -11,-10 -17,1 -28,-8l-216 -217c-12,-11 -15,-11 -21,-22 17,0 34,0 51,0 26,-1 23,0 36,13l201 202c19,18 33,27 34,40 2,10 0,16 6,22 27,24 54,-34 11,-34 -11,0 -7,2 -15,-6l-38 -38c-68,-68 -134,-134 -202,-202 -12,-12 -20,-8 -42,-8 -17,0 -34,0 -52,0l-304 0z"/>
 </g>
</svg>
