<?xml version="1.0" encoding="UTF-8"?>
<!DOCTYPE svg PUBLIC "-//W3C//DTD SVG 1.1//EN" "http://www.w3.org/Graphics/SVG/1.1/DTD/svg11.dtd">
<!-- Creator: CorelDRAW X7 -->
<svg xmlns="http://www.w3.org/2000/svg" xml:space="preserve" width="130.475mm" height="272.835mm" version="1.1" style="shape-rendering:geometricPrecision; text-rendering:geometricPrecision; image-rendering:optimizeQuality; fill-rule:evenodd; clip-rule:evenodd"
viewBox="0 0 19919 41652"
 xmlns:xlink="http://www.w3.org/1999/xlink">
 <defs>
  <style type="text/css">
   <![CDATA[
    .fil1 {fill:#FEFEFE}
    .fil0 {fill:#2C2474}
   ]]>
  </style>
 </defs>
 <g id="Layer_x0020_1">
  <metadata id="CorelCorpID_0Corel-Layer"/>
  <rect class="fil0" width="19919" height="41652"/>
  <g id="_278093448">
   <path class="fil1" d="M0 32887l0 104c2015,-8 4033,-1 6048,0 941,1 745,111 1171,-330 145,-149 211,-92 645,-90 249,1 212,-25 487,-304l1126 -1122c177,-177 13,-688 92,-708l101 -106c61,-91 42,-96 33,-201 -332,-328 -582,148 -252,287 -2,148 12,361 0,499 -16,176 -576,656 -709,791 -759,763 -627,793 -1286,746 58,-118 535,-562 628,-655 790,-785 724,-581 721,-1172 -2,-351 -33,-298 158,-483l2549 -2549c58,-57 102,-111 156,-162 137,-128 76,-31 248,-68 215,-47 169,-328 41,-389 -315,-57 -267,101 -304,326 -474,429 -874,847 -1258,1250l-935 936c-93,89 -220,237 -321,302 -7,-879 -130,-537 865,-1543l908 -907c53,-28 442,13 357,-284 -112,-220 -383,-193 -402,33 -13,162 46,112 -66,225l-924 921c-249,249 -480,491 -734,734 -328,312 157,802 -339,1157 -1,-782 9,-1568 0,-2351 -4,-338 68,-291 466,-695 133,-135 504,-471 580,-597 132,3 238,13 304,-76 62,-84 43,-213 -17,-272 -63,-64 -191,-73 -271,-14 -113,83 -51,168 -92,284 -16,44 -694,717 -759,761l-480 -465c-141,-133 -69,-58 -99,-247 -60,-388 -595,-81 -347,174 81,83 183,49 292,55l548 569c-86,125 -215,159 -229,321 -16,179 10,388 -6,578 -47,-31 -314,-285 -352,-335 -118,-154 37,-433 -99,-594 -496,-586 -377,35 -378,-1693 -1,-669 -24,-414 110,-580 146,-182 -59,-401 -252,-309 -65,31 -129,110 -112,219 19,118 89,113 150,210l-2 1672c-1,243 73,242 196,366 85,85 224,166 241,321 47,434 -178,201 361,748 141,144 162,199 134,432l-747 -740c-104,-100 -125,-76 -137,-236 -9,-131 -25,-208 -151,-234 -287,-59 -336,320 -124,392 271,93 -6,-170 457,292l562 560c78,74 138,96 150,226 20,209 1,573 -2,796 -125,-67 -916,-870 -883,-890l-6 -51c0,-9 0,-17 -1,-27 -33,-420 -491,-249 -396,45 63,196 222,79 333,135l781 771c245,245 174,227 173,894 -1,660 70,424 -789,1286l-1042 1058 -6869 3z"/>
   <path class="fil1" d="M0 32457l0 112c2074,0 4148,-2 6221,1 836,1 551,122 1126,-443 269,-264 510,-512 778,-777 106,-105 324,-259 331,-434 37,-838 47,-613 -831,-1492 -552,-554 -1031,-1027 -1555,-1555 -135,-135 -251,-258 -389,-390 -119,-113 -110,-57 -113,-229 -2,-128 -42,-201 -159,-222 -298,-52 -316,320 -125,388 275,99 14,-188 487,290l2333 2333c208,208 242,135 240,529 -2,395 51,406 -185,606 -132,-49 -1050,-1000 -1063,-1048 -29,-100 12,-212 -70,-278 -186,-150 -440,76 -313,286 122,200 155,-80 432,202 211,215 805,766 900,924 -56,124 -812,844 -940,971 -296,293 -286,236 -1059,227 -210,-2 -272,-136 -393,-256 -223,-222 -424,-425 -649,-647 -223,-221 -424,-423 -647,-648 -168,-170 -113,-195 -440,-190 -379,5 -302,38 -503,-164 -98,-99 -613,-586 -633,-656 0,-1 28,-362 -265,-299 -224,48 -144,269 -50,392 202,36 172,-43 290,68l530 536c181,180 135,232 487,227 398,-4 322,-9 528,198 179,180 1382,1351 1420,1435 -145,5 -337,10 -480,3 -167,-8 -221,-113 -306,-199 -128,-128 -970,-1000 -1052,-1022 -105,-28 -872,-8 -1041,-7 -145,-255 -413,-167 -410,58 2,112 74,195 191,201 170,8 156,-84 257,-156 269,1 538,0 808,-1 256,0 229,45 502,319 112,111 738,710 776,803l-4966 4z"/>
   <path class="fil1" d="M0 28896l0 111 3102 11c79,26 444,419 533,508 354,353 686,683 1037,1036l1058 1045c20,142 -31,250 78,326 227,157 455,-168 270,-330 -114,-99 -178,13 -290,-83l-2273 -2278c-127,-121 -155,-120 -216,-237 177,3 355,3 532,1 271,-3 243,5 380,145l2116 2117c190,189 340,281 357,424 12,103 -4,166 61,226 278,256 569,-351 116,-357 -122,-2 -80,21 -163,-57l-402 -406c-713,-713 -1402,-1402 -2115,-2118 -126,-126 -212,-84 -437,-84 -182,0 -365,1 -547,1l-3197 -1z"/>
  </g>
 </g>
</svg>
