<?xml version="1.0" encoding="UTF-8"?>
<!DOCTYPE svg PUBLIC "-//W3C//DTD SVG 1.1//EN" "http://www.w3.org/Graphics/SVG/1.1/DTD/svg11.dtd">
<!-- Creator: CorelDRAW X7 -->
<svg xmlns="http://www.w3.org/2000/svg" xml:space="preserve" width="130.475mm" height="40.4681mm" version="1.1" style="shape-rendering:geometricPrecision; text-rendering:geometricPrecision; image-rendering:optimizeQuality; fill-rule:evenodd; clip-rule:evenodd"
viewBox="0 0 5699 1768"
 xmlns:xlink="http://www.w3.org/1999/xlink">
 <defs>
  <style type="text/css">
   <![CDATA[
    .fil1 {fill:#9ABA9E}
    .fil2 {fill:#9ABA9E}
    .fil0 {fill:url(#id0)}
   ]]>
  </style>
  <linearGradient id="id0" gradientUnits="userSpaceOnUse" x1="2439.05" y1="1298.65" x2="3260.3" y2="469.066">
   <stop offset="0" style="stop-opacity:1; stop-color:#0C0C3B"/>
   <stop offset="1" style="stop-opacity:1; stop-color:#0C0C3B"/>
  </linearGradient>
 </defs>
 <g id="Layer_x0020_1">
  <metadata id="CorelCorpID_0Corel-Layer"/>
  <rect class="fil0" width="5699" height="1768"/>
  <g id="_509869344">
   <g>
    <path class="fil1" d="M5185 1512l0 7c-143,0 -287,0 -430,0 -67,0 -53,8 -84,-23 -10,-11 -15,-7 -45,-7 -18,0 -16,-1 -35,-21l-80 -80c-13,-13 -1,-49 -7,-51l-7 -7c-4,-7 -3,-7 -2,-15 23,-23 41,11 18,21 0,10 -1,26 0,35 1,13 40,47 50,57 54,54 45,56 92,53 -5,-8 -39,-40 -45,-47 -56,-56 -52,-41 -51,-83 0,-25 2,-21 -12,-35l-181 -181c-4,-4 -8,-8 -11,-12 -10,-9 -6,-2 -18,-5 -15,-3 -12,-23 -3,-27 22,-4 19,7 22,23 33,31 62,60 89,89l67 67c6,6 16,17 23,21 0,-62 9,-38 -62,-110l-65 -64c-3,-2 -31,1 -25,-20 8,-16 27,-14 29,2 1,11 -4,8 4,16l66 65c18,18 34,35 52,53 24,22 -11,57 25,82 0,-56 -1,-112 0,-167 0,-24 -5,-21 -34,-50 -9,-9 -36,-33 -41,-42 -9,0 -17,1 -22,-6 -4,-6 -3,-15 2,-19 4,-5 13,-5 19,-1 8,6 4,12 7,20 1,3 49,51 54,54l34 -33c10,-9 5,-4 7,-17 4,-28 42,-6 24,12 -5,6 -13,4 -20,4l-39 40c6,9 15,12 16,23 1,13 -1,28 0,41 4,-2 23,-20 25,-23 9,-11 -2,-31 7,-43 36,-41 27,3 27,-120 0,-48 2,-30 -7,-42 -11,-12 4,-28 18,-22 4,3 9,8 7,16 -1,9 -6,8 -10,15l0 119c0,17 -5,17 -14,26 -6,6 -16,12 -17,23 -3,31 13,14 -26,53 -10,11 -11,14 -9,31l53 -53c7,-7 9,-5 10,-16 0,-10 1,-15 10,-17 21,-4 24,23 9,28 -19,6 1,-12 -32,21l-40 39c-6,6 -10,7 -11,17 -2,14 0,40 0,56 9,-5 65,-62 63,-63l0 -4c0,0 0,-1 0,-2 3,-30 35,-17 29,4 -5,13 -16,5 -24,9l-56 55c-17,17 -12,16 -12,64 0,47 -5,30 56,91l74 76 489 0z"/>
    <path class="fil1" d="M5185 1481l0 8c-147,0 -295,0 -443,0 -59,0 -39,9 -80,-31 -19,-19 -36,-37 -55,-56 -8,-7 -23,-18 -24,-31 -2,-59 -3,-43 59,-106 40,-39 74,-73 111,-111 10,-9 18,-18 28,-27 8,-8 8,-4 8,-17 0,-9 3,-14 11,-15 22,-4 23,22 9,27 -19,7 -1,-13 -34,21l-167 166c-14,15 -17,10 -17,38 0,28 -3,29 13,43 10,-4 75,-71 76,-75 2,-7 -1,-15 5,-20 13,-10 31,6 22,21 -8,14 -11,-6 -30,14 -15,15 -58,55 -64,66 4,9 57,60 67,69 21,21 20,17 75,16 15,0 19,-9 28,-18 16,-16 30,-30 46,-46 16,-16 30,-30 46,-46 12,-12 8,-14 32,-14 27,1 21,3 35,-11 7,-7 44,-42 45,-47 0,0 -2,-26 19,-21 16,3 11,19 4,27 -15,3 -12,-3 -21,5l-38 38c-12,13 -9,17 -34,17 -29,-1 -23,-1 -38,14 -13,13 -98,96 -101,102 10,0 24,1 34,0 12,0 16,-8 22,-14 9,-9 69,-71 75,-73 7,-2 62,0 74,0 10,-18 30,-12 29,4 0,8 -5,14 -13,14 -12,1 -11,-6 -19,-11 -19,0 -38,0 -57,0 -18,0 -16,3 -36,23 -8,8 -52,50 -55,57l353 0z"/>
    <path class="fil1" d="M5185 1228l0 8 -220 0c-6,2 -32,30 -38,36 -26,26 -49,49 -74,74l-76 75c-1,10 3,17 -5,23 -16,11 -33,-12 -19,-24 8,-7 12,1 20,-6l162 -162c9,-8 11,-8 16,-17 -13,1 -26,1 -38,0 -20,0 -18,1 -27,11l-151 151c-14,13 -24,20 -25,30 -1,7 0,11 -5,16 -20,18 -40,-25 -8,-26 9,0 6,2 11,-4l29 -29c51,-50 100,-99 151,-150 9,-9 15,-6 31,-6 13,0 26,0 39,0l227 0z"/>
    <path class="fil1" d="M5185 1512l0 7c-143,0 -287,0 -430,0 -67,0 -53,8 -84,-23 -10,-11 -15,-7 -45,-7 -18,0 -16,-1 -35,-21l-80 -80c-13,-13 -1,-49 -7,-51l-7 -7c-4,-7 -3,-7 -2,-15 23,-23 41,11 18,21 0,10 -1,26 0,35 1,13 40,47 50,57 54,54 45,56 92,53 -5,-8 -39,-40 -45,-47 -56,-56 -52,-41 -51,-83 0,-25 2,-21 -12,-35l-181 -181c-4,-4 -8,-8 -11,-12 -10,-9 -6,-2 -18,-5 -15,-3 -12,-23 -3,-27 22,-4 19,7 22,23 33,31 62,60 89,89l67 67c6,6 16,17 23,21 0,-62 9,-38 -62,-110l-65 -64c-3,-2 -31,1 -25,-20 8,-16 27,-14 29,2 1,11 -4,8 4,16l66 65c18,18 34,35 52,53 24,22 -11,57 25,82 0,-56 -1,-112 0,-167 0,-24 -5,-21 -34,-50 -9,-9 -36,-33 -41,-42 -9,0 -17,1 -22,-6 -4,-6 -3,-15 2,-19 4,-5 13,-5 19,-1 8,6 4,12 7,20 1,3 49,51 54,54l34 -33c10,-9 5,-4 7,-17 4,-28 42,-6 24,12 -5,6 -13,4 -20,4l-39 40c6,9 15,12 16,23 1,13 -1,28 0,41 4,-2 23,-20 25,-23 9,-11 -2,-31 7,-43 36,-41 27,3 27,-120 0,-48 2,-30 -7,-42 -11,-12 4,-28 18,-22 4,3 9,8 7,16 -1,9 -6,8 -10,15l0 119c0,17 -5,17 -14,26 -6,6 -16,12 -17,23 -3,31 13,14 -26,53 -10,11 -11,14 -9,31l53 -53c7,-7 9,-5 10,-16 0,-10 1,-15 10,-17 21,-4 24,23 9,28 -19,6 1,-12 -32,21l-40 39c-6,6 -10,7 -11,17 -2,14 0,40 0,56 9,-5 65,-62 63,-63l0 -4c0,0 0,-1 0,-2 3,-30 35,-17 29,4 -5,13 -16,5 -24,9l-56 55c-17,17 -12,16 -12,64 0,47 -5,30 56,91l74 76 489 0z"/>
   </g>
   <polygon class="fil2" points="5174,1228 5699,1228 5699,1236 5174,1236 "/>
   <polygon class="fil2" points="5183,1481 5699,1481 5699,1489 5183,1489 "/>
   <polygon class="fil2" points="5182,1511 5699,1511 5699,1520 5182,1520 "/>
  </g>
  <g id="_509874936">
   <g>
    <path class="fil1" d="M514 1512l0 7c143,0 287,0 431,0 67,0 53,8 83,-23 10,-11 15,-7 46,-7 18,0 15,-1 35,-21l80 -80c12,-13 1,-49 6,-51l7 -7c5,-7 3,-7 3,-15 -24,-23 -42,11 -18,21 0,10 1,26 0,35 -1,13 -41,47 -51,57 -54,54 -44,56 -91,53 4,-8 38,-40 45,-47 56,-56 51,-41 51,-83 0,-25 -2,-21 11,-35l182 -181c4,-4 7,-8 11,-12 9,-9 5,-2 17,-5 16,-3 12,-23 3,-27 -22,-4 -19,7 -21,23 -34,31 -63,60 -90,89l-67 67c-6,6 -15,17 -22,21 -1,-62 -10,-38 61,-110l65 -64c4,-2 31,1 25,-21 -8,-15 -27,-13 -28,3 -1,11 3,8 -5,16l-66 65c-18,18 -34,35 -52,53 -23,22 11,57 -24,82 0,-56 0,-112 0,-167 -1,-24 5,-21 33,-50 9,-9 36,-33 41,-42 10,0 17,1 22,-6 4,-6 3,-15 -1,-19 -5,-5 -14,-5 -20,-1 -8,6 -3,12 -6,20 -1,3 -50,51 -54,54l-34 -33c-10,-9 -5,-4 -7,-17 -5,-28 -43,-6 -25,12 6,6 13,4 21,4l39 40c-6,9 -16,12 -17,23 -1,13 1,28 0,41 -3,-2 -22,-20 -25,-23 -8,-11 3,-31 -7,-43 -35,-41 -27,3 -27,-120 0,-48 -2,-30 8,-42 10,-12 -4,-28 -18,-22 -5,3 -9,8 -8,16 1,8 6,8 11,15l-1 119c0,17 6,17 14,26 6,6 16,12 17,23 4,31 -12,14 26,53 10,11 12,14 10,31l-53 -53c-8,-7 -9,-5 -10,-16 -1,-10 -2,-15 -11,-17 -20,-4 -24,23 -9,28 19,6 0,-12 33,21l40 39c5,6 10,7 10,17 2,14 1,40 0,56 -9,-5 -65,-62 -63,-63l0 -4c0,0 0,-1 0,-2 -2,-30 -35,-17 -28,4 4,13 16,5 23,9l56 55c18,17 12,16 12,64 0,47 5,30 -56,91l-74 76 -489 0z"/>
    <path class="fil1" d="M514 1481l0 8c148,0 295,0 443,0 59,0 39,9 80,-31 19,-19 36,-37 55,-56 8,-7 23,-18 24,-31 3,-59 3,-43 -59,-106 -39,-39 -74,-73 -111,-111 -9,-9 -18,-18 -28,-27 -8,-8 -7,-4 -8,-17 0,-9 -3,-14 -11,-15 -21,-4 -22,22 -9,27 20,7 1,-13 35,21l166 166c15,15 17,10 17,38 0,28 4,29 -13,43 -9,-4 -75,-71 -76,-75 -2,-7 1,-15 -5,-20 -13,-10 -31,6 -22,21 9,14 11,-6 31,14 15,15 57,55 64,66 -4,9 -58,60 -67,69 -21,21 -21,17 -76,16 -15,0 -19,-9 -28,-18 -15,-16 -30,-30 -46,-46 -16,-16 -30,-30 -46,-46 -12,-12 -8,-14 -31,-14 -27,1 -22,3 -36,-11 -7,-7 -44,-42 -45,-47 0,0 2,-26 -19,-21 -16,3 -10,19 -3,27 14,3 12,-3 20,5l38 38c13,13 9,17 35,17 28,-1 22,-1 37,14 13,13 99,96 101,102 -10,0 -24,1 -34,0 -12,0 -16,-8 -22,-14 -9,-9 -69,-71 -75,-73 -7,-2 -62,0 -74,0 -10,-18 -29,-12 -29,4 0,8 5,14 14,14 12,1 11,-6 18,-11 19,0 38,0 57,0 19,0 17,3 36,23 8,8 53,50 56,57l-354 0z"/>
    <path class="fil1" d="M514 1228l0 8 221 0c5,2 31,30 38,36 25,26 49,49 74,74l75 75c1,10 -2,17 5,23 17,11 33,-12 20,-24 -8,-7 -13,1 -21,-6l-162 -162c-9,-8 -11,-8 -15,-17 12,1 25,1 38,0 19,0 17,1 27,11l150 151c14,13 25,20 26,30 1,7 0,11 4,16 20,18 41,-25 8,-26 -8,0 -5,2 -11,-4l-29 -29c-51,-50 -100,-99 -150,-150 -9,-9 -15,-6 -31,-6 -13,0 -26,0 -39,0l-228 0z"/>
    <path class="fil1" d="M514 1512l0 7c143,0 287,0 431,0 67,0 53,8 83,-23 10,-11 15,-7 46,-7 18,0 15,-1 35,-21l80 -80c12,-13 1,-49 6,-51l7 -7c5,-7 3,-7 3,-15 -24,-23 -42,11 -18,21 0,10 1,26 0,35 -1,13 -41,47 -51,57 -54,54 -44,56 -91,53 4,-8 38,-40 45,-47 56,-56 51,-41 51,-83 0,-25 -2,-21 11,-35l182 -181c4,-4 7,-8 11,-12 9,-9 5,-2 17,-5 16,-3 12,-23 3,-27 -22,-4 -19,7 -21,23 -34,31 -63,60 -90,89l-67 67c-6,6 -15,17 -22,21 -1,-62 -10,-38 61,-110l65 -64c4,-2 31,1 25,-21 -8,-15 -27,-13 -28,3 -1,11 3,8 -5,16l-66 65c-18,18 -34,35 -52,53 -23,22 11,57 -24,82 0,-56 0,-112 0,-167 -1,-24 5,-21 33,-50 9,-9 36,-33 41,-42 10,0 17,1 22,-6 4,-6 3,-15 -1,-19 -5,-5 -14,-5 -20,-1 -8,6 -3,12 -6,20 -1,3 -50,51 -54,54l-34 -33c-10,-9 -5,-4 -7,-17 -5,-28 -43,-6 -25,12 6,6 13,4 21,4l39 40c-6,9 -16,12 -17,23 -1,13 1,28 0,41 -3,-2 -22,-20 -25,-23 -8,-11 3,-31 -7,-43 -35,-41 -27,3 -27,-120 0,-48 -2,-30 8,-42 10,-12 -4,-28 -18,-22 -5,3 -9,8 -8,16 1,8 6,8 11,15l-1 119c0,17 6,17 14,26 6,6 16,12 17,23 4,31 -12,14 26,53 10,11 12,14 10,31l-53 -53c-8,-7 -9,-5 -10,-16 -1,-10 -2,-15 -11,-17 -20,-4 -24,23 -9,28 19,6 0,-12 33,21l40 39c5,6 10,7 10,17 2,14 1,40 0,56 -9,-5 -65,-62 -63,-63l0 -4c0,0 0,-1 0,-2 -2,-30 -35,-17 -28,4 4,13 16,5 23,9l56 55c18,17 12,16 12,64 0,47 5,30 -56,91l-74 76 -489 0z"/>
   </g>
   <polygon class="fil2" points="525,1228 0,1228 0,1236 525,1236 "/>
   <polygon class="fil2" points="516,1481 0,1481 0,1489 516,1489 "/>
   <polygon class="fil2" points="518,1511 0,1511 0,1520 518,1520 "/>
  </g>
 </g>
</svg>
