<?xml version="1.0" encoding="UTF-8"?>
<!DOCTYPE svg PUBLIC "-//W3C//DTD SVG 1.1//EN" "http://www.w3.org/Graphics/SVG/1.1/DTD/svg11.dtd">
<!-- Creator: CorelDRAW X7 -->
<svg xmlns="http://www.w3.org/2000/svg" xml:space="preserve" width="76.6234mm" height="10.3065mm" version="1.1" style="shape-rendering:geometricPrecision; text-rendering:geometricPrecision; image-rendering:optimizeQuality; fill-rule:evenodd; clip-rule:evenodd"
viewBox="0 0 41505 5583"
 xmlns:xlink="http://www.w3.org/1999/xlink">
 <defs>
  <style type="text/css">
   <![CDATA[
    .fil0 {fill:white}
   ]]>
  </style>
 </defs>
 <g id="Layer_x0020_1">
  <metadata id="CorelCorpID_0Corel-Layer"/>
  <path class="fil0" d="M20279 4682c953,20 1942,40 2784,-14 380,-25 446,-193 640,-390l3695 -3708c321,-304 1206,-181 1964,-181 701,0 1427,18 2125,-6 179,-190 275,-387 581,-383 991,13 383,1743 -502,754 -11,-12 -30,-35 -40,-45 -9,-11 -25,-31 -39,-47 -937,-32 -1916,-5 -2858,-6 -675,0 -791,-107 -1212,302l-3642 3701c420,11 845,5 1266,8 624,5 558,-60 870,-380l1902 -1909c368,-299 3378,2 3674,-128 279,-280 244,-446 815,-354 221,240 431,613 99,890 -456,379 -723,-63 -914,-259 -934,-41 -1918,-1 -2860,-9 -728,-6 -634,28 -1003,403 -252,256 -556,467 -704,785 143,232 302,356 498,551 221,222 305,364 551,473 745,-687 647,-889 1315,-889 727,1 1478,27 2203,-4 184,-194 197,-403 582,-385 992,45 368,1848 -582,663 -670,-21 -1383,-15 -2056,-12 -513,3 -826,339 -1238,849 121,275 170,350 576,360l5729 0c428,-4 440,-71 652,-288 643,-659 1255,-1258 1904,-1908 546,-548 475,-400 1469,-399 594,1 1331,38 1906,-17 146,-170 154,-288 401,-352 756,-197 926,884 258,1026 -423,-8 -491,-96 -635,-393 -740,1 -1484,7 -2224,-1 -550,-6 -562,-65 -855,235l-1718 1728c-682,677 -347,628 -1604,628 -1514,1 -3029,-1 -4544,0 -1302,1 -983,139 -1677,-554 -281,-281 -870,-979 -1205,-1093 -1312,1306 -646,1004 -2908,1004 -326,0 -1969,-31 -3439,-29l0 -217z"/>
  <path class="fil0" d="M21226 4682c-953,20 -1942,40 -2784,-14 -380,-25 -446,-193 -640,-390l-3695 -3708c-321,-304 -1205,-181 -1964,-181 -701,0 -1427,18 -2125,-6 -179,-190 -275,-387 -581,-383 -991,13 -383,1743 502,754 12,-12 31,-35 40,-45 9,-11 25,-31 39,-47 937,-32 1917,-5 2858,-6 675,0 791,-107 1212,302l3643 3701c-420,11 -846,5 -1267,8 -624,5 -557,-60 -870,-380l-1902 -1909c-368,-299 -3377,2 -3674,-128 -278,-280 -244,-446 -815,-354 -221,240 -431,613 -98,890 455,379 723,-63 913,-259 934,-41 1918,-1 2860,-9 728,-6 634,28 1003,403 252,256 556,467 704,785 -143,232 -302,356 -498,551 -221,222 -305,364 -551,473 -745,-687 -647,-889 -1314,-889 -728,1 -1479,27 -2204,-4 -184,-194 -197,-403 -582,-385 -992,45 -368,1848 582,663 671,-21 1383,-15 2057,-12 512,3 825,339 1237,849 -121,275 -170,350 -576,360l-5729 0c-428,-4 -440,-71 -652,-288 -643,-659 -1255,-1258 -1904,-1908 -546,-548 -475,-400 -1469,-399 -594,1 -1331,38 -1906,-17 -146,-170 -154,-288 -401,-352 -756,-197 -926,884 -258,1026 423,-8 491,-96 635,-393 741,1 1484,7 2224,-1 550,-6 562,-65 855,235l1718 1728c682,677 347,628 1604,628 1514,1 3029,-1 4544,0 1302,1 983,139 1677,-554 281,-281 870,-979 1205,-1093 1312,1306 646,1004 2908,1004 326,0 1970,-31 3439,-29l0 -217z"/>
 </g>
</svg>
